<svg width="64" height="64" viewBox="0 0 64 64" fill="none" xmlns="http://www.w3.org/2000/svg">
<path d="M43.7527 16.4541H20.2473C18.1384 16.4564 16.43 18.1654 16.4277 20.2737V43.779C16.43 45.8874 18.1384 47.5964 20.2473 47.5987H43.7527C45.861 47.5964 47.57 45.8874 47.5723 43.779V20.2737C47.57 18.1654 45.861 16.4564 43.7527 16.4541ZM45.8094 43.779C45.8077 44.9141 44.8878 45.8346 43.7527 45.8358H20.2473C19.1117 45.8346 18.1918 44.9141 18.1906 43.779V20.2737C18.1918 19.138 19.1117 18.2181 20.2473 18.217H43.7527C44.8878 18.2181 45.8082 19.138 45.8094 20.2737V43.779Z" fill="black"/>
<path d="M46.6918 12.0469H17.3102C14.3904 12.0503 12.0244 14.4158 12.0215 17.3356V46.7172C12.0244 49.6365 14.3904 52.0025 17.3102 52.0059H46.6918C49.6111 52.0025 51.9771 49.6365 51.9805 46.7172V17.3356C51.9771 14.4158 49.6111 12.0503 46.6918 12.0469ZM50.2176 46.7172C50.2153 48.6638 48.6378 50.2407 46.6918 50.243H17.3102C15.3636 50.2407 13.7867 48.6638 13.7844 46.7172V17.3356C13.7861 15.389 15.3636 13.8121 17.3102 13.8098H46.6918C48.6378 13.8121 50.2153 15.389 50.2176 17.3356V46.7172Z" fill="black"/>
<path d="M35.1764 54.8916C34.6892 54.8916 34.2949 55.2864 34.2949 55.7731V63.1185C34.2949 63.6057 34.6892 63.9999 35.1764 63.9999C35.663 63.9999 36.0578 63.6057 36.0578 63.1185V55.7731C36.0578 55.2864 35.663 54.8916 35.1764 54.8916Z" fill="black"/>
<path d="M28.8248 54.8916C28.3376 54.8916 27.9434 55.2864 27.9434 55.7731V63.1185C27.9434 63.6057 28.3376 63.9999 28.8248 63.9999C29.3114 63.9999 29.7063 63.6057 29.7063 63.1185V55.7731C29.7063 55.2864 29.3114 54.8916 28.8248 54.8916Z" fill="black"/>
<path d="M22.4732 54.8916C21.9866 54.8916 21.5918 55.2864 21.5918 55.7731V63.1185C21.5918 63.6057 21.9866 63.9999 22.4732 63.9999C22.9599 63.9999 23.3547 63.6057 23.3547 63.1185V55.7731C23.3547 55.2864 22.9599 54.8916 22.4732 54.8916Z" fill="black"/>
<path d="M41.5279 54.8916C41.0407 54.8916 40.6465 55.2864 40.6465 55.7731V63.1185C40.6465 63.6057 41.0407 63.9999 41.5279 63.9999C42.0146 63.9999 42.4094 63.6057 42.4094 63.1185V55.7731C42.4094 55.2864 42.0146 54.8916 41.5279 54.8916Z" fill="black"/>
<path d="M29.7063 8.22686V0.88145C29.7063 0.394816 29.3114 0 28.8248 0C28.3376 0 27.9434 0.394816 27.9434 0.88145V8.22686C27.9434 8.7135 28.3376 9.10831 28.8248 9.10831C29.3114 9.10831 29.7063 8.7135 29.7063 8.22686Z" fill="black"/>
<path d="M36.0578 8.22686V0.88145C36.0578 0.394816 35.663 0 35.1764 0C34.6892 0 34.2949 0.394816 34.2949 0.88145V8.22686C34.2949 8.7135 34.6892 9.10831 35.1764 9.10831C35.663 9.10831 36.0578 8.7135 36.0578 8.22686Z" fill="black"/>
<path d="M42.4094 8.22686V0.88145C42.4094 0.394816 42.0146 0 41.5279 0C41.0407 0 40.6465 0.394816 40.6465 0.88145V8.22686C40.6465 8.7135 41.0407 9.10831 41.5279 9.10831C42.0146 9.10831 42.4094 8.7135 42.4094 8.22686Z" fill="black"/>
<path d="M23.3547 8.22686V0.88145C23.3547 0.394816 22.9599 0 22.4732 0C21.9866 0 21.5918 0.394816 21.5918 0.88145V8.22686C21.5918 8.7135 21.9866 9.10831 22.4732 9.10831C22.9599 9.10831 23.3547 8.7135 23.3547 8.22686Z" fill="black"/>
<path d="M63.1175 27.9434H55.7721C55.2854 27.9434 54.8906 28.3376 54.8906 28.8248C54.8906 29.3114 55.2854 29.7063 55.7721 29.7063H63.1175C63.6047 29.7063 63.9989 29.3114 63.9989 28.8248C63.9989 28.3376 63.6047 27.9434 63.1175 27.9434Z" fill="black"/>
<path d="M63.1175 34.2949H55.7721C55.2854 34.2949 54.8906 34.6892 54.8906 35.1764C54.8906 35.663 55.2854 36.0578 55.7721 36.0578H63.1175C63.6047 36.0578 63.9989 35.663 63.9989 35.1764C63.9989 34.6892 63.6047 34.2949 63.1175 34.2949Z" fill="black"/>
<path d="M63.1175 40.6455H55.7721C55.2854 40.6455 54.8906 41.0397 54.8906 41.527C54.8906 42.0136 55.2854 42.4084 55.7721 42.4084H63.1175C63.6047 42.4084 63.9989 42.0136 63.9989 41.527C63.9989 41.0397 63.6047 40.6455 63.1175 40.6455Z" fill="black"/>
<path d="M63.1175 21.5918H55.7721C55.2854 21.5918 54.8906 21.9866 54.8906 22.4732C54.8906 22.9599 55.2854 23.3547 55.7721 23.3547H63.1175C63.6047 23.3547 63.9989 22.9599 63.9989 22.4732C63.9989 21.9866 63.6047 21.5918 63.1175 21.5918Z" fill="black"/>
<path d="M8.22686 34.2949H0.88145C0.394816 34.2949 0 34.6892 0 35.1764C0 35.663 0.394816 36.0578 0.88145 36.0578H8.22686C8.7135 36.0578 9.10831 35.663 9.10831 35.1764C9.10831 34.6892 8.7135 34.2949 8.22686 34.2949Z" fill="black"/>
<path d="M8.22686 27.9434H0.88145C0.394816 27.9434 0 28.3376 0 28.8248C0 29.3114 0.394816 29.7063 0.88145 29.7063H8.22686C8.7135 29.7063 9.10831 29.3114 9.10831 28.8248C9.10831 28.3376 8.7135 27.9434 8.22686 27.9434Z" fill="black"/>
<path d="M8.22686 21.5918H0.88145C0.394816 21.5918 0 21.9866 0 22.4732C0 22.9599 0.394816 23.3547 0.88145 23.3547H8.22686C8.7135 23.3547 9.10831 22.9599 9.10831 22.4732C9.10831 21.9866 8.7135 21.5918 8.22686 21.5918Z" fill="black"/>
<path d="M8.22686 40.6455H0.88145C0.394816 40.6455 0 41.0397 0 41.527C0 42.0136 0.394816 42.4084 0.88145 42.4084H8.22686C8.7135 42.4084 9.10831 42.0136 9.10831 41.527C9.10831 41.0397 8.7135 40.6455 8.22686 40.6455Z" fill="black"/>
<path d="M31.1761 25.7499C31.0464 25.3619 30.562 25.168 30.0771 25.168C29.5922 25.168 29.1234 25.3619 28.9942 25.7499L25.7783 36.2211C25.7651 36.2687 25.76 36.3181 25.7622 36.3669C25.7622 36.7869 26.3602 37.0779 26.8291 37.0779C27.12 37.0779 27.3461 36.9809 27.427 36.7221L28.0893 34.4278H32.081L32.7433 36.7221C32.8242 36.9809 33.0503 37.0779 33.3252 37.0779C33.8101 37.0779 34.408 36.7709 34.408 36.3669C34.4052 36.3169 34.3943 36.2676 34.3753 36.2211L31.1761 25.7499ZM28.4611 33.054L30.0771 27.511L31.6931 33.054H28.4611Z" fill="black"/>
<path d="M36.5404 25.2656C36.1203 25.2656 35.6836 25.4269 35.6836 25.8148V36.5127C35.6836 36.8846 36.1203 37.0785 36.5404 37.0785C36.9765 37.0785 37.3966 36.8846 37.3966 36.5127V25.8154C37.3966 25.4269 36.9765 25.2656 36.5404 25.2656Z" fill="black"/>
</svg>
