<?xml version="1.0" encoding="utf-8"?>
<!-- Generator: Adobe Illustrator 24.2.1, SVG Export Plug-In . SVG Version: 6.00 Build 0)  -->
<svg version="1.1" id="BarCamp_logo" xmlns="http://www.w3.org/2000/svg" xmlns:xlink="http://www.w3.org/1999/xlink" x="0px"
	 y="0px" viewBox="0 0 310 310" style="enable-background:new 0 0 310 310;" xml:space="preserve">
<style type="text/css">
	.st0{fill:#EB202B;}
</style>
<g>
	<path class="st0" d="M145,264.8c1.4-0.1,2.6-0.2,3.9-0.3c4-0.4,8.1-0.7,12.1-1.2c2.7-0.3,5.5-0.9,8.1-1.5c2.1-0.5,4.1-1.3,6.1-2.1
		c4.1-1.7,7.9-4.1,11.4-6.9c3.7-3,6.6-6.7,7.9-11.4c1.4-5,0.9-9.8-2.1-14c-2.3-3.1-5.5-4.8-9.3-5.1c-4.2-0.4-8.5-0.2-12.7,0.4
		c-3.6,0.5-7.2,1.1-10.8,1.9c-4.2,1-8.4,2-12.7,2.9c-3.6,0.8-7.2,1.3-10.9,2.1c-2.3,0.5-4.7,0.4-7.1,0.5c-2.2,0.1-4.3,0-6.5,0.2
		c-4,0.3-8,0-12-0.7c-4.8-0.9-9.3-2.7-13.5-5.2c-1.4-0.9-2.5-2-3.5-3.3c-0.6-0.9-0.9-1.9-1-2.9c-0.1-0.7,0.2-1.1,0.9-1.4
		c0.3-0.1,0.6-0.2,0.9-0.3c2.6-0.4,5.2-1.2,7.6-2.2c5.4-2.2,9.9-5.5,13.6-10.1c2.7-3.4,4.4-7.4,4.6-11.8c0.1-2.9-0.4-5.7-1.4-8.4
		c-0.9-2.3-1.7-4.7-2.9-6.9c-1.9-3.7-4.3-7-7.3-9.9c-3.5-3.4-7.5-5.9-11.9-7.8c-2.9-1.2-5.9-2.2-9-2.5c-3.1-0.3-6.1-0.1-9.1,1
		c-1.6,0.6-3,1.4-4.2,2.5c-3.3,3.1-6.6,6.4-9.8,9.6c-2.7,2.6-5.2,5.3-8.2,7.5c-2.1,1.5-4.3,2.7-6.7,3.5c-3.1,1.1-6.4,1.6-9.7,1.4
		c-3-0.1-5.9-0.8-8.6-2c-2.9-1.2-5.5-2.8-8-4.7c-3.3-2.5-6.4-5.3-9.4-8.3c-0.5-0.5-1.1-0.9-1.7-1.5c0.4-0.1,0.6-0.2,0.8-0.1
		c3.8,0.5,7.6,0.9,11.4,1c1.9,0,3.8,0.2,5.8,0.1c4-0.1,7.9-0.6,11.7-2c5.6-2.1,9.3-6.1,11.3-11.7c0.9-2.5,1.4-5,1.5-7.6
		c0.2-3,0.4-6.1,0.6-9.1c0.1-2.5,0.2-5,0.4-7.5c0.2-3.6,0.2-7.3,1.3-10.8c1.4-4.4,4.2-7.5,8.6-9.1c2.9-1.1,5.9-1.2,8.9-1
		c3.1,0.2,6.1,0.9,9,1.9c4.2,1.5,8.3,3.4,12.2,5.6c3.8,2.2,7.5,4.5,11,7.1c2.5,1.8,5.1,3.6,7.7,5.3c3.4,2.1,6.6,4.4,10.3,5.9
		c2.4,1,4.9,1.7,7.5,2.1c2.3,0.4,4.5,0.5,6.8,0c3-0.6,5.8-1.6,8.3-3.6c4.5-3.7,7.3-8.4,9.1-13.9c1.6-5.1,1.7-10.3,1-15.6
		c-0.3-2.5-0.8-5-1.5-7.4c-0.9-3.2-2.6-6-4.6-8.6c-2.2-2.9-4.9-5.3-8-7.2c-2.5-1.5-5.1-2.5-7.9-3.1c-2-0.4-4-0.8-6-1
		c-3.3-0.3-6.6,0.1-9.8,0.6c-3.8,0.6-7.5,1.4-11.3,1.5c-0.3,0-0.6,0-1,0c-1.2-0.1-1.7-0.7-1.7-1.9c0-0.6,0.1-1.1,0.3-1.6
		c1.9-3.8,3.8-7.6,5.8-11.3c2.7-5,6.6-8.9,11.2-12.1c2-1.4,4.2-2.3,6.5-3c3.6-1.1,7.3-1,11-0.6c2.6,0.2,5.2,0.8,7.6,1.6
		c1.9,0.6,3.7,1.3,5.5,2.1c6.4,2.8,12.8,5.6,19.2,8.4c2.8,1.2,5.7,2.5,8.6,3.5c3,1.1,6,2,9.2,2.2c2,0.1,4.1,0.4,6.1,0.4
		c3.7,0,7.2-0.7,10.4-2.6c1.6-0.9,3-2.1,4-3.7c1.4-2.3,1.3-4.6,0.2-7c-1.7-3.6-4.2-6.6-7.4-9.1c-2.8-2.2-5.8-3.8-9-5.4
		c-2.4-1.2-4.8-2.5-7.2-3.8c-0.9-0.5-1.8-1-2.7-1.6c-0.3-0.2-0.5-0.4-0.7-0.6c-0.5-0.6-0.4-1.1,0.3-1.5c0.4-0.2,0.8-0.3,1.3-0.3
		c3.6-0.4,7.2-0.7,10.8-1c0.8-0.1,1.7-0.1,2.5-0.1c3.1,0,6.1-0.1,9.2,0c1.6,0.1,3.3,0.4,4.9,0.7c4,0.7,7.9,1.5,11.7,2.7
		c4.5,1.4,8.9,3,13.1,5.1c3.7,1.8,7.2,3.8,10.6,6.1c4.2,2.9,8.1,6.2,11.7,9.8c5.4,5.3,9.9,11.3,13.9,17.7c3.6,5.7,6.8,11.6,9.4,17.7
		c1.7,3.9,3.2,7.9,4.6,11.9c1.3,3.8,2.6,7.7,3.6,11.6c1.2,4.7,2.4,9.5,3.1,14.4c0.1,0.9,0.3,1.7,0.5,2.7c-0.6,0.1-1.1,0.2-1.6,0.2
		c-4.9,0-9.9,0-14.8,0c-3.4,0-6.7,0.1-10.1,0.1c-0.1,0-0.2,0-0.2,0c-2.3,0.3-3.8-0.6-5-2.7c-1.4-2.6-3.2-5.1-4.8-7.6
		c-0.8-1.2-1.8-1.8-3.3-1.8c-8.9,0-17.7,0-26.6,0c-0.8,0-1.6,0-2.4,0c-1.5,0-1.9-0.4-1.9-1.9c0-2.9,0-5.9,0-8.8c0-2.4,0-4.8,0-7.2
		c0-1.3-0.1-1.4-1.5-1.4c-0.5,0-1,0-1.4-0.1c-1.3-0.3-2.5,1.1-2.4,2.3c0.1,4.9,0,9.8,0,14.7c0,1.8,0,3.7-0.1,5.5
		c-0.1,1.6,0.4,2.1,2,2.1c10.2,0,20.5,0,30.7,0c0.4,0,0.8,0,1.2,0c1.1,0,2,0.5,2.6,1.5c1.6,2.6,3.3,5.2,5,7.8
		c0.2,0.2,0.3,0.5,0.5,0.7c0.9,1.5,2.1,2.1,3.9,2.1c9.5,0,19,0,28.4-0.1c0.5,0,1,0,1.4,0c1.1,0.1,1.3,0.3,1.4,1.4
		c0.2,1.9,0.4,3.8,0.6,5.8c0,0.4,0.1,0.8,0.1,1.2c0.1,0.9,0,1-0.9,1.1c-0.3,0-0.6,0.1-1,0.1c-2.9,0-5.8-0.1-8.7-0.1
		c-1.1,0-1.9-0.5-2.6-1.3c-2.5-3-7.8-3.2-10.4,0.1c-0.7,0.9-1.6,1.3-2.8,1.3c-3.5,0-7.1,0-10.6,0c-1.2,0-2-0.5-2.6-1.5
		c-2-3.4-3.9-6.8-5.9-10.2c-0.2-0.3-0.3-0.6-0.4-0.9c-0.8-1.9-2.3-2.6-4.4-2.5c-1.3,0.1-2.6,0.1-4,0.1c-11.6,0-23.2-0.1-34.8,0
		c-1.8,0-3.1-0.7-4.3-1.8c-3.5-3.6-7-7.1-10.6-10.7c-2.1-2.2-4.3-4.3-6.5-6.5c-0.3-0.3-0.5-0.5-0.8-0.7c-0.3-0.3-0.7-0.3-1.1,0
		c-0.9,0.9-1.8,1.8-2.6,2.7c-0.5,0.5-0.3,1,0.1,1.4c0.8,0.8,1.5,1.5,2.3,2.3c4.6,4.6,9.2,9.2,13.8,13.8c1.1,1.1,2.2,2.3,3.4,3.4
		c1.1,1.1,2.4,1.6,4,1.6c12.9-0.1,25.8,0,38.7-0.1c1.6,0,2.6,0.6,3.4,2c1.1,2.1,2.4,4.2,3.6,6.3c0.2,0.3,0.3,0.7,0.5,1.1
		c-0.3,0.1-0.6,0.2-0.8,0.2c-16.9,0-33.9-0.1-50.8-0.1c-12.7,0-25.4,0-38.1,0c-2.4,0-4.7,0-7.1,0c-5.1-0.1-10.2-0.1-15.3-0.2
		c-0.6,0-1.2,0.1-1.8,0.2c-0.9,0.3-1.2,0.8-1.2,1.7c0,0.6,0,1.1,0,1.7c0,1.3,0.6,2,1.9,2.1c1.4,0,2.7,0,4.1,0c3.9,0,7.9,0,11.8,0
		c6.2,0,12.4,0,18.7-0.1c3.6,0,7.1,0,10.7,0c3.4,0,6.7-0.1,10.1-0.1c3.4,0,6.9,0,10.3,0c7.3,0,14.5,0,21.8,0c8.8,0,17.6,0,26.4,0
		c2,0,3.2,0.8,4,2.6c0.5,1.1,1.2,2.1,1.7,3.2c0.2,0.3,0.3,0.6,0.5,1c-0.4,0.1-0.6,0.2-0.9,0.2c-2.3,0-4.6,0.1-6.9,0.1
		c-4.2,0-8.4,0-12.6,0c-5.5,0-10.9,0-16.4,0c-3.5,0-6.9,0-10.4,0c-1.8,0-3.2,0.4-4.5,1.8c-2.2,2.4-4.6,4.6-6.9,6.9
		c-1,1-2.2,1.5-3.8,1.5c-5.1-0.1-10.3,0-15.4,0c-3.3,0-6.7,0-10,0c-1.4,0-2.1,0.6-2.1,2c0,0.6,0,1.1,0,1.7c0,1.3,0.5,1.8,1.9,1.8
		c3.7,0,7.4,0,11.1,0c3.1,0,6.1,0,9.2,0c0.5,0,1.1,0.1,1.8,0.2c-0.3,0.4-0.4,0.6-0.6,0.8c-2.6,2.5-5.1,5.1-7.7,7.6
		c-0.1,0.1-0.3,0.3-0.4,0.5c-0.7,1-0.7,1,0.2,1.7c0.7,0.6,1.3,1.3,2,1.9c0.3,0.3,0.6,0.5,1,0.9c0.8-0.8,1.5-1.5,2.3-2.2
		c1.3-1.2,2.5-2.5,3.7-3.8c1.8-1.8,3.6-3.6,5.3-5.5c1.6-1.8,3.6-2.5,5.9-2.4c4.1,0.1,8.1,0.1,12.2,0.1c10.4,0,20.7,0,31.1,0
		c1.8,0,2.8,0.8,3.6,2.2c1.5,2.6,3,5.2,4.4,7.9c0.7,1.3,1.5,2.5,2.2,3.9c0.8,1.6,1.9,2.2,3.7,2.2c6.3-0.1,12.7,0,19,0
		c3.8,0,7.5,0,11.3,0c0.6,0,1.3,0.1,1.9,0.1c0.6,0,0.9,0.4,0.9,0.9c0,0,0,0.1,0,0.1c-0.1,2.6,0,3-2.9,3c-15.3,0-30.5,0-45.8,0
		c-4.9,0-9.8,0-14.7,0c-1.5,0-2.7,0.5-3.7,1.5c-6.1,6.1-12.2,12.2-18.3,18.4c-1.3,1.3-1.3,1.3,0.1,2.6c0.5,0.5,1,1,1.4,1.4
		c0.8,0.8,1,0.8,1.8,0.1c2.1-2,4.1-4.1,6.2-6.1c2.7-2.7,5.5-5.4,8.2-8.2c1-1,1.9-1.9,2.9-2.9c0.9-0.9,1.9-1.3,3.1-1.3
		c13,0,25.9,0,38.9,0c6.5,0,12.9,0,19.4,0c1.7,0,1.8,0.1,1.4,1.8c-1.3,5.4-2.7,10.8-4.5,16c-1.4,3.9-2.9,7.8-4.6,11.6
		c-1.9,4.2-4,8.3-6.4,12.3c-3.1,5.1-6.5,9.8-10.4,14.3c-3.4,3.9-7,7.5-11,10.8c-5.6,4.6-11.7,8.4-18.3,11.2c-4,1.7-8.2,3-12.5,4
		c-2.3,0.5-4.7,0.8-7,1.1c-2.3,0.3-4.5,0.6-6.8,0.6c-3.9,0.1-7.8,0.1-11.7,0.1c-4.4,0-8.6-0.8-12.9-1.6c-4.1-0.7-8.1-1.8-12-2.9
		c-5.1-1.4-10.1-3-14.9-4.9c-4.6-1.8-9.2-3.8-13.6-6.1c-0.6-0.3-1.1-0.6-1.7-0.9C145.1,265.2,145.1,265.1,145,264.8z M232.9,186.1
		C232.9,186,232.9,186,232.9,186.1c5.5,0,10.9,0,16.4,0c1.1,0,1.5-0.3,1.6-1.4c0.1-0.7,0.1-1.4,0.1-2c0-1.5-0.6-2-2.1-2
		c-6,0-12,0-18.1,0c-5.2,0-10.4,0.1-15.5,0.1c-1.5,0-2.7,0.4-3.7,1.4c-3.5,3.2-6.9,6.4-10.4,9.7c-1.5,1.5-3.1,2.4-5.4,2.3
		c-2.6-0.2-5.2,0-7.8,0c-4.7,0-9.3-0.1-14-0.1c-2.6,0-5.2-0.1-7.8-0.1c-2.8,0-5.5,0.1-8.3,0.1c-0.7,0-1.4-0.1-2-0.1
		c-0.9,0-1.5,0.4-1.5,1.2c-0.1,1,0,2.1,0,3.1c0,0.6,0.4,1,0.9,1.1c0.3,0.1,0.7,0.1,1.1,0.1c1.8,0,3.5,0.1,5.3,0.1
		c5.3,0,10.5-0.1,15.8-0.1c6.9,0,13.7,0,20.6,0c2.1,0,3.7-0.7,5.1-2.1c3.4-3.4,7-6.7,10.5-10c1-0.9,2.1-1.4,3.5-1.4
		C222.3,186.1,227.6,186.1,232.9,186.1z M158.1,156C158.1,156,158.1,155.9,158.1,156c-10.8,0-21.7,0-32.5,0c-0.3,0-0.6,0-0.8,0
		c-0.8,0.1-1.1,0.4-1.2,1.2c-0.1,0.9-0.1,1.8-0.1,2.8c0,0.5,0.2,1,0.8,1.1c0.7,0.2,1.3,0.4,2,0.4c4.9,0,9.7,0,14.6,0
		c10.3,0,20.6,0,30.9,0c5.5,0,11.1,0,16.6,0c0.8,0,1.6,0.1,2.4,0c1.3-0.1,2-1,2.1-2.2c0-0.4,0-0.7,0-1.1c0-1.6-0.5-2.1-2.1-2.1
		C179.8,156,168.9,156,158.1,156z M182.8,87.5c0,3.1,0,6.1,0,9.2c0,1,0.3,1.8,1,2.5c3.5,3.5,6.9,6.9,10.4,10.4
		c2.4,2.4,4.7,4.7,7.1,7.1c1.8,1.8,3.5,3.5,5.3,5.3c0.6,0.6,0.8,0.6,1.4,0.1c1-0.8,2-1.6,2.9-2.5c0.5-0.5,0.5-0.8-0.1-1.1
		c-1.1-0.5-1.9-1.5-2.7-2.3c-2.6-2.6-5.1-5.2-7.7-7.8c-3.5-3.5-7-7-10.5-10.4c-1.2-1.2-1.7-2.5-1.7-4.2c0-4.7,0-9.3,0-14
		c0-0.4,0-0.9-0.1-1.3c-0.2-1.1-0.7-1.5-1.8-1.6c-0.6,0-1.2,0.1-1.8,0.1c-1.6,0.1-1.7,0.2-1.7,1.8C182.8,81.6,182.8,84.5,182.8,87.5
		z M180,135.2C180,135.2,180,135.1,180,135.2c0.6,0,1.3,0,1.9,0c2.2,0,4.4,0.1,6.6,0.1c1.1,0,1.3-0.2,1.6-1.3
		c0.2-0.8,0.2-1.6,0.2-2.4c-0.1-1.2-0.7-1.7-1.9-1.8c-2-0.1-3.9-0.1-5.9-0.1c-3.3,0-6.6,0-9.9,0c-2.2,0-4.3-0.4-6.2-1.6
		c-2.2-1.4-4.5-2.6-6.8-3.9c-0.9-0.5-1.1-0.5-1.6,0.4c-0.5,0.9-1,1.8-1.5,2.8c-0.4,0.8-0.5,0.9,0.4,1.4c3.2,1.9,6.4,3.7,9.7,5.5
		c0.6,0.3,1.4,0.5,2.1,0.5C172.6,135,176.3,135.1,180,135.2z M130.6,164.4c-0.2,0-0.3,0-0.5,0c-5.9,0.3-7.4,5.6-5.5,9.3
		c0.3,0.6,0.8,1.2,1.4,1.6c1.6,1.3,3.5,1.6,5.6,1.2c2.8-0.5,5.1-2.5,5.1-5.7C136.8,167.2,134.5,164.4,130.6,164.4z M173.4,109.5
		c1.6,0,3.2-0.5,4.1-1.1c3.4-2.3,2.9-7.5,0.4-9.6c-2.7-2.3-6.7-1.8-9,0.4c-1.3,1.2-2.1,2.7-1.9,4.6
		C167.3,107.5,170,109.5,173.4,109.5z M195.9,222.3c0.1,0.6,0.2,1.3,0.4,1.9c0.9,2.2,2.5,3.5,4.8,3.8c2.9,0.5,6.8-0.5,7.6-4.7
		c0.5-2.7-0.5-5.5-3.4-6.8c-2-0.9-4-0.8-5.9,0.2C197.2,217.8,195.7,219.9,195.9,222.3z M172.1,177.2c-0.7,0.1-1.5,0.2-2.2,0.4
		c-2.9,1-5,3.5-4.2,7.4c0.3,1.4,1,2.6,2.3,3.4c1.8,1.1,3.7,1.2,5.6,0.9c1.6-0.3,3-1,3.9-2.4c1.3-2.2,1.1-4.6-0.1-6.8
		C176.2,178,174.3,177.2,172.1,177.2z M231.9,208c-0.1,3.6,2.4,6.1,6.2,6.1c3.6,0.1,6.4-2.4,6.5-5.9c0.1-3.5-2.4-6.2-5.9-6.3
		C235.3,201.8,231.8,204.3,231.9,208z M242.1,106.1c0.1-1.2-0.3-2.3-1.1-3.4c-1.4-2.1-4.5-3.2-7.6-2.1c-4.1,1.5-5.1,5.6-3.2,8.9
		c1.1,1.9,3.1,2.6,5.2,2.7C239.6,112.3,242.3,109.7,242.1,106.1z"/>
	<path class="st0" d="M208.2,166.1c0.6-1.1,1.3-1.8,2-2.6c1.1-1.1,2.3-1.5,3.9-1.5c7.8,0.1,15.6,0,23.4,0c7.5,0,14.9,0,22.4-0.1
		c2.2,0,3.3,1.2,4.3,2.9c0.2,0.4,0.4,0.8,0.7,1.1c1,0.8,1.3,2,1.8,3.1c0.6,1.2,1.3,2.4,2,3.5c0.4,0.7,0.9,1.3,1.3,2.1
		c0.4,1,1.4,1.6,2.6,1.6c1.3,0,2.6,0,4,0c6.3,0,12.7,0,19-0.1c1.1,0,1.3,0.2,1.3,1.2c0,0.6,0,1.3,0,1.9c0,1.9-1.3,3.2-3.2,3.2
		c-6.5,0-13,0-19.5,0c-3,0-5.9,0-8.9,0c-0.7,0-1.3-0.1-1.9-0.6c-1.1-0.9-2.1-1.8-2.5-3.2c-0.2-0.7-0.6-1.4-1-2
		c-0.5-0.9-1.1-1.9-1.7-2.8c-0.4-0.7-1-1.3-1.3-2.1c-0.2-0.7-0.8-1.4-1.1-2.2c-0.2-0.5-0.5-0.9-0.7-1.4c-0.4-0.7-0.9-1.4-1.9-1.5
		c-0.8-0.1-1.7-0.3-2.5-0.3c-6.4,0-12.8,0-19.1,0c-5.9,0-11.7,0-17.6,0c-1.5,0-3,0-4.5,0C209.1,166.3,208.8,166.2,208.2,166.1z"/>
	<path class="st0" d="M284.6,161.9c4,0,7.9,0,11.9,0c1.1,0,1.2,0.1,1.2,1.3c0,1.6,0,3.3,0,4.9c0,1.6-1.3,2.9-2.9,3
		c-1.9,0-3.8,0-5.7,0c-3.6,0-7.2-0.1-10.8,0c-2,0.1-3.4-0.9-4.5-2.3c-1.1-1.4-2.1-2.9-3.1-4.4c-0.6-0.9,0.1-2.3,1.2-2.5
		c0.4-0.1,0.7,0,1.1,0C276.9,162,280.8,162,284.6,161.9C284.6,162,284.6,162,284.6,161.9z"/>
	<path class="st0" d="M281.3,155.9c-4.3,0-8.5,0-12.8,0c-1.4,0-2.4-0.5-3.3-1.4c-0.7-0.8-1.6-1.4-1.6-2.6c0-0.2-0.3-0.5-0.5-0.7
		c-0.3-0.3-0.4-0.7-0.1-1.1c0.2-0.2,0.5-0.5,0.9-0.5c0.7-0.1,1.4,0,2.2,0c1.9,0,3.8,0,5.8,0c1,0,2,0.3,2.6,1c1.7,2.1,4,1.9,6.3,1.7
		c1.5-0.2,2.7-1,3.9-1.9c0.8-0.5,1.6-0.9,2.6-0.9c3.1,0,6.3,0,9.4,0c1,0,1.2,0.2,1.2,1.2c0,0.7,0,1.4,0,2c0,1.7-1.4,3.1-3.1,3.1
		C290.2,155.9,285.8,155.9,281.3,155.9C281.3,155.9,281.3,155.9,281.3,155.9z"/>
</g>
</svg>
