<?xml version="1.0" encoding="utf-8"?>
<!-- Generator: Adobe Illustrator 24.2.1, SVG Export Plug-In . SVG Version: 6.00 Build 0)  -->
<svg version="1.1" id="Barcamp_logo" xmlns="http://www.w3.org/2000/svg" xmlns:xlink="http://www.w3.org/1999/xlink" x="0px"
	 y="0px" viewBox="0 0 1090 310" style="enable-background:new 0 0 1090 310;" xml:space="preserve">
<style type="text/css">
	.st0{fill:#EB202B;}
	.st1{fill:#1050A0;}
</style>
<g>
	<path class="st0" d="M154.4,260.1c1.3-0.1,2.5-0.2,3.7-0.3c3.9-0.4,7.7-0.6,11.6-1.1c2.6-0.3,5.2-0.8,7.8-1.5c2-0.5,4-1.2,5.9-2
		c3.9-1.7,7.6-3.9,10.9-6.6c3.6-2.9,6.3-6.4,7.5-10.9c1.3-4.8,0.9-9.3-2.1-13.4c-2.2-3-5.3-4.6-8.9-4.9c-4.1-0.3-8.1-0.2-12.2,0.3
		c-3.5,0.5-6.9,1-10.3,1.8c-4,1-8.1,1.9-12.1,2.7c-3.4,0.7-6.9,1.3-10.4,2c-2.2,0.5-4.5,0.4-6.8,0.5c-2.1,0.1-4.1,0-6.2,0.2
		c-3.9,0.3-7.7,0-11.4-0.7c-4.6-0.9-8.9-2.5-12.9-5c-1.3-0.8-2.4-1.9-3.3-3.2c-0.6-0.8-0.8-1.8-1-2.8c-0.1-0.7,0.2-1.1,0.8-1.4
		c0.3-0.1,0.6-0.2,0.9-0.2c2.5-0.4,4.9-1.1,7.3-2.1c5.1-2.1,9.5-5.3,13-9.7c2.6-3.3,4.2-7.1,4.4-11.3c0.1-2.7-0.4-5.4-1.4-8
		c-0.8-2.2-1.6-4.5-2.7-6.6c-1.8-3.5-4.2-6.7-7-9.5c-3.3-3.2-7.2-5.7-11.4-7.4c-2.8-1.1-5.6-2.1-8.6-2.4c-3-0.3-5.9-0.1-8.7,1
		c-1.5,0.6-2.9,1.3-4,2.4c-3.2,3-6.3,6.1-9.4,9.1c-2.5,2.5-5,5-7.8,7.1c-2,1.4-4.1,2.6-6.4,3.4c-3,1.1-6.1,1.5-9.3,1.4
		c-2.8-0.1-5.6-0.8-8.2-1.9c-2.7-1.2-5.2-2.7-7.6-4.5c-3.2-2.4-6.1-5.1-8.9-7.9c-0.5-0.5-1-0.9-1.7-1.4c0.4-0.1,0.6-0.2,0.8-0.1
		c3.6,0.5,7.2,0.9,10.9,0.9c1.8,0,3.7,0.2,5.5,0.1c3.8-0.1,7.6-0.6,11.2-1.9c5.4-2,8.9-5.9,10.8-11.2c0.8-2.4,1.3-4.8,1.5-7.3
		c0.2-2.9,0.4-5.8,0.5-8.7c0.1-2.4,0.2-4.8,0.3-7.1c0.2-3.5,0.2-7,1.3-10.4c1.3-4.2,4-7.2,8.2-8.7c2.8-1,5.6-1.1,8.5-0.9
		c3,0.2,5.9,0.8,8.6,1.8c4.1,1.4,7.9,3.2,11.7,5.4c3.6,2.1,7.2,4.3,10.5,6.8c2.4,1.8,4.9,3.5,7.4,5.1c3.2,2,6.3,4.2,9.9,5.6
		c2.3,0.9,4.7,1.6,7.2,2c2.2,0.3,4.3,0.4,6.5,0c2.9-0.5,5.6-1.6,7.9-3.5c4.3-3.5,7-8,8.7-13.3c1.6-4.9,1.6-9.9,1-14.9
		c-0.3-2.4-0.7-4.8-1.4-7.1c-0.9-3-2.4-5.7-4.4-8.2c-2.1-2.8-4.7-5.1-7.7-6.9c-2.4-1.4-4.9-2.4-7.6-3c-1.9-0.4-3.8-0.8-5.8-0.9
		c-3.1-0.3-6.3,0.1-9.4,0.6c-3.6,0.6-7.2,1.4-10.8,1.4c-0.3,0-0.6,0-0.9,0c-1.2-0.1-1.7-0.7-1.6-1.8c0-0.5,0.1-1.1,0.3-1.6
		c1.8-3.6,3.6-7.3,5.6-10.9c2.6-4.7,6.3-8.5,10.7-11.6c1.9-1.3,4-2.2,6.2-2.9c3.5-1,7-0.9,10.5-0.6c2.5,0.2,4.9,0.7,7.3,1.5
		c1.8,0.6,3.5,1.3,5.3,2c6.1,2.7,12.2,5.4,18.4,8c2.7,1.2,5.4,2.4,8.2,3.4c2.9,1,5.8,1.9,8.8,2.1c2,0.1,3.9,0.4,5.8,0.4
		c3.5,0,6.9-0.7,9.9-2.5c1.5-0.9,2.9-2,3.9-3.5c1.3-2.2,1.3-4.4,0.2-6.7c-1.6-3.5-4.1-6.3-7-8.7c-2.6-2.1-5.6-3.7-8.6-5.1
		c-2.3-1.1-4.6-2.4-6.9-3.6c-0.9-0.5-1.7-1-2.6-1.5c-0.3-0.2-0.5-0.3-0.7-0.6c-0.5-0.6-0.3-1.1,0.3-1.4c0.4-0.2,0.8-0.3,1.2-0.3
		c3.4-0.3,6.9-0.7,10.3-1c0.8-0.1,1.6-0.1,2.4-0.1c2.9,0,5.8-0.1,8.8,0c1.6,0.1,3.1,0.4,4.7,0.6c3.8,0.6,7.5,1.4,11.2,2.6
		c4.3,1.3,8.5,2.8,12.5,4.8c3.5,1.7,6.9,3.7,10.2,5.9c4,2.8,7.7,5.9,11.2,9.4c5.1,5.1,9.5,10.8,13.3,16.9c3.4,5.4,6.5,11.1,9,17
		c1.6,3.7,3.1,7.5,4.4,11.4c1.3,3.7,2.5,7.3,3.5,11.1c1.2,4.5,2.3,9.1,2.9,13.7c0.1,0.8,0.3,1.7,0.5,2.6c-0.6,0.1-1.1,0.2-1.5,0.2
		c-4.7,0-9.4,0-14.2,0c-3.2,0-6.5,0.1-9.7,0.1c-0.1,0-0.2,0-0.2,0c-2.2,0.3-3.7-0.6-4.8-2.6c-1.4-2.5-3-4.9-4.6-7.3
		c-0.7-1.1-1.8-1.7-3.2-1.7c-8.5,0-17,0-25.5,0c-0.8,0-1.5,0-2.3,0c-1.4,0-1.8-0.4-1.8-1.8c0-2.8,0-5.6,0-8.4c0-2.3,0-4.6,0-6.9
		c0-1.3-0.1-1.3-1.4-1.4c-0.5,0-0.9,0-1.4-0.1c-1.2-0.3-2.4,1.1-2.3,2.2c0.1,4.7,0,9.4,0,14.1c0,1.8,0,3.5-0.1,5.3
		c-0.1,1.5,0.4,2,1.9,2c9.8,0,19.6,0,29.4,0c0.4,0,0.8,0,1.2,0c1.1,0,1.9,0.5,2.5,1.4c1.6,2.5,3.2,5,4.8,7.5
		c0.1,0.2,0.3,0.4,0.4,0.7c0.8,1.4,2.1,2,3.7,2c9.1,0,18.1,0,27.2-0.1c0.5,0,0.9,0,1.4,0c1,0.1,1.3,0.3,1.4,1.3
		c0.2,1.8,0.4,3.7,0.5,5.5c0,0.4,0.1,0.8,0.1,1.1c0.1,0.8,0,0.9-0.8,1.1c-0.3,0-0.6,0.1-0.9,0.1c-2.8,0-5.5-0.1-8.3-0.1
		c-1,0-1.8-0.5-2.5-1.3c-2.4-2.9-7.5-3-9.9,0.1c-0.7,0.9-1.6,1.3-2.7,1.3c-3.4,0-6.8,0-10.1,0c-1.1,0-1.9-0.4-2.5-1.4
		c-1.9-3.3-3.8-6.5-5.6-9.8c-0.2-0.3-0.3-0.5-0.4-0.8c-0.8-1.8-2.2-2.5-4.2-2.4c-1.3,0.1-2.5,0.1-3.8,0.1c-11.1,0-22.2-0.1-33.3,0
		c-1.7,0-3-0.6-4.1-1.8c-3.4-3.4-6.7-6.8-10.1-10.3c-2.1-2.1-4.1-4.1-6.2-6.2c-0.2-0.2-0.5-0.5-0.8-0.7c-0.3-0.3-0.7-0.3-1,0
		c-0.8,0.8-1.7,1.7-2.5,2.5c-0.5,0.5-0.3,0.9,0.1,1.3c0.7,0.7,1.5,1.5,2.2,2.2c4.4,4.4,8.8,8.8,13.2,13.2c1.1,1.1,2.1,2.2,3.2,3.3
		c1.1,1.1,2.3,1.5,3.8,1.5c12.3-0.1,24.7,0,37-0.1c1.5,0,2.5,0.6,3.2,1.9c1.1,2,2.3,4,3.4,6c0.2,0.3,0.3,0.7,0.5,1.1
		c-0.3,0.1-0.5,0.2-0.7,0.2c-16.2,0-32.4,0-48.6-0.1c-12.1,0-24.3,0-36.4,0c-2.3,0-4.5,0-6.8,0c-4.9-0.1-9.7-0.1-14.6-0.2
		c-0.6,0-1.2,0.1-1.7,0.2c-0.8,0.3-1.2,0.7-1.2,1.6c0,0.5,0,1.1,0,1.6c0,1.3,0.5,1.9,1.8,2c1.3,0,2.6,0,3.9,0c3.8,0,7.5,0,11.3,0
		c6,0,11.9,0,17.9-0.1c3.4,0,6.8,0,10.2,0c3.2,0,6.4,0,9.7-0.1c3.3,0,6.6,0,9.9,0c7,0,13.9,0,20.9,0c8.4,0,16.8,0,25.2,0
		c1.9,0,3.1,0.8,3.9,2.5c0.5,1,1.1,2,1.7,3c0.2,0.3,0.3,0.6,0.5,1c-0.4,0.1-0.6,0.2-0.9,0.2c-2.2,0-4.4,0.1-6.6,0.1
		c-4,0-8.1,0-12.1,0c-5.2,0-10.4,0-15.7,0c-3.3,0-6.6,0-9.9,0c-1.7,0-3.1,0.4-4.3,1.7c-2.1,2.3-4.4,4.4-6.6,6.6
		c-1,1-2.1,1.5-3.6,1.5c-4.9-0.1-9.8,0-14.7,0c-3.2,0-6.4,0-9.6,0c-1.3,0-2,0.6-2,1.9c0,0.5,0,1.1,0,1.6c0,1.3,0.5,1.7,1.8,1.7
		c3.5,0,7.1,0,10.6,0c2.9,0,5.8,0,8.8,0c0.5,0,1,0.1,1.7,0.2c-0.3,0.4-0.4,0.6-0.6,0.8c-2.5,2.4-4.9,4.9-7.4,7.3
		c-0.1,0.1-0.2,0.3-0.4,0.5c-0.7,0.9-0.7,0.9,0.2,1.7c0.7,0.6,1.3,1.2,1.9,1.9c0.3,0.3,0.5,0.5,0.9,0.9c0.8-0.7,1.5-1.4,2.2-2.1
		c1.2-1.2,2.4-2.4,3.6-3.6c1.7-1.7,3.4-3.4,5-5.2c1.5-1.7,3.4-2.4,5.6-2.3c3.9,0.1,7.8,0.1,11.6,0.1c9.9,0,19.8,0,29.7,0
		c1.7,0,2.7,0.8,3.5,2.1c1.4,2.5,2.8,5,4.3,7.5c0.7,1.2,1.5,2.4,2.1,3.7c0.7,1.5,1.8,2.1,3.5,2.1c6.1-0.1,12.1,0,18.2,0
		c3.6,0,7.2,0,10.8,0c0.6,0,1.2,0.1,1.8,0.1c0.6,0,0.8,0.3,0.8,0.9c0,0,0,0.1,0,0.1c-0.1,2.4,0,2.9-2.8,2.9c-14.6,0-29.2,0-43.8,0
		c-4.7,0-9.4,0-14.1,0c-1.4,0-2.5,0.5-3.5,1.5c-5.8,5.8-11.7,11.7-17.5,17.6c-1.3,1.3-1.2,1.3,0.1,2.5c0.5,0.4,0.9,0.9,1.4,1.4
		c0.8,0.7,1,0.8,1.7,0.1c2-1.9,3.9-3.9,5.9-5.8c2.6-2.6,5.2-5.2,7.8-7.8c0.9-0.9,1.8-1.9,2.7-2.8c0.8-0.8,1.8-1.2,3-1.2
		c12.4,0,24.8,0,37.2,0c6.2,0,12.4,0,18.6,0c1.7,0,1.7,0.1,1.4,1.7c-1.2,5.2-2.5,10.3-4.3,15.3c-1.3,3.8-2.8,7.5-4.4,11.1
		c-1.8,4-3.9,7.9-6.1,11.7c-2.9,4.8-6.2,9.4-9.9,13.7c-3.2,3.7-6.7,7.2-10.5,10.3c-5.3,4.4-11.1,8-17.5,10.7
		c-3.9,1.6-7.8,2.9-11.9,3.8c-2.2,0.5-4.5,0.8-6.7,1.1c-2.2,0.3-4.3,0.5-6.5,0.6c-3.7,0.1-7.4,0.1-11.2,0.1c-4.2,0-8.2-0.8-12.3-1.5
		c-3.9-0.7-7.7-1.7-11.5-2.8c-4.8-1.3-9.6-2.9-14.3-4.7c-4.4-1.7-8.8-3.6-13-5.8c-0.5-0.3-1.1-0.6-1.6-0.8
		C154.6,260.4,154.6,260.3,154.4,260.1z M238.5,184.7C238.5,184.7,238.5,184.7,238.5,184.7c5.2,0,10.4,0,15.7,0
		c1.1,0,1.4-0.3,1.5-1.3c0.1-0.6,0.1-1.3,0.1-2c0-1.4-0.6-1.9-2-1.9c-5.8,0-11.5,0-17.3,0c-5,0-9.9,0.1-14.9,0.1
		c-1.4,0-2.5,0.4-3.5,1.3c-3.3,3.1-6.6,6.1-9.9,9.3c-1.5,1.4-3,2.3-5.2,2.2c-2.5-0.2-5,0-7.5,0c-4.5,0-8.9,0-13.4-0.1
		c-2.5,0-5-0.1-7.5-0.1c-2.6,0-5.3,0.1-7.9,0.1c-0.7,0-1.3-0.1-2-0.1c-0.9,0-1.4,0.4-1.5,1.1c-0.1,1,0,2,0,3c0,0.6,0.4,0.9,0.9,1.1
		c0.3,0.1,0.7,0.1,1,0.1c1.7,0,3.4,0.1,5.1,0c5,0,10.1,0,15.1-0.1c6.6,0,13.1,0,19.7,0c2,0,3.5-0.7,4.9-2c3.3-3.2,6.7-6.4,10-9.5
		c0.9-0.9,2-1.3,3.3-1.3C228.4,184.7,233.4,184.7,238.5,184.7z M167,155.9C167,155.9,167,155.9,167,155.9c-10.4,0-20.7,0-31.1,0
		c-0.3,0-0.5,0-0.8,0c-0.7,0.1-1,0.4-1.1,1.1c-0.1,0.9-0.1,1.8-0.1,2.6c0,0.5,0.2,0.9,0.7,1.1c0.6,0.2,1.3,0.3,1.9,0.3
		c4.6,0,9.3,0,13.9,0c9.9,0,19.7,0,29.6,0c5.3,0,10.6,0,15.9,0c0.8,0,1.5,0.1,2.3,0c1.2-0.1,1.9-0.9,2-2.1c0-0.3,0-0.7,0-1
		c0-1.5-0.5-2-2-2C187.8,155.9,177.4,155.9,167,155.9z M190.6,90.4c0,2.9,0,5.8,0,8.8c0,1,0.3,1.7,1,2.4c3.3,3.3,6.6,6.6,9.9,10
		c2.2,2.3,4.5,4.5,6.8,6.8c1.7,1.7,3.4,3.4,5.1,5c0.6,0.6,0.7,0.6,1.4,0.1c0.9-0.8,1.9-1.6,2.8-2.4c0.5-0.4,0.5-0.8-0.1-1.1
		c-1.1-0.5-1.8-1.4-2.6-2.2c-2.5-2.5-4.9-5-7.4-7.4c-3.3-3.3-6.7-6.7-10.1-10c-1.1-1.1-1.6-2.4-1.6-4c0-4.5,0-8.9,0-13.4
		c0-0.4,0-0.8-0.1-1.3c-0.2-1.1-0.6-1.5-1.7-1.5c-0.6,0-1.1,0.1-1.7,0.1c-1.5,0.1-1.6,0.2-1.6,1.7C190.6,84.7,190.6,87.6,190.6,90.4
		z M188,136.1C188,136,188,136,188,136.1c0.6,0,1.2,0,1.8,0c2.1,0,4.2,0.1,6.3,0.1c1,0,1.3-0.2,1.5-1.2c0.2-0.7,0.2-1.5,0.2-2.3
		c-0.1-1.1-0.6-1.7-1.8-1.7c-1.9-0.1-3.8-0.1-5.6-0.1c-3.1,0-6.3,0-9.4,0c-2.1,0-4.1-0.4-5.9-1.6c-2.1-1.3-4.3-2.5-6.5-3.8
		c-0.9-0.5-1-0.5-1.5,0.4c-0.5,0.9-0.9,1.8-1.4,2.6c-0.4,0.8-0.5,0.9,0.4,1.4c3.1,1.8,6.2,3.6,9.3,5.3c0.6,0.3,1.3,0.5,2,0.5
		C180.8,135.9,184.4,135.9,188,136.1z M140.7,164c-0.2,0-0.3,0-0.5,0c-5.6,0.3-7.1,5.4-5.2,8.9c0.3,0.6,0.8,1.1,1.3,1.5
		c1.6,1.2,3.4,1.5,5.3,1.2c2.7-0.4,4.8-2.4,4.9-5.5C146.6,166.7,144.4,164,140.7,164z M181.7,111.5c1.5,0,3-0.5,3.9-1.1
		c3.3-2.2,2.7-7.2,0.3-9.2c-2.6-2.2-6.4-1.7-8.6,0.4c-1.2,1.2-2,2.6-1.8,4.4C175.8,109.6,178.4,111.5,181.7,111.5z M203.1,219.4
		c0.1,0.6,0.2,1.2,0.4,1.8c0.8,2.1,2.4,3.3,4.6,3.7c2.8,0.4,6.5-0.5,7.2-4.5c0.5-2.6-0.5-5.2-3.2-6.5c-1.9-0.8-3.9-0.7-5.7,0.2
		C204.4,215.1,203,217.1,203.1,219.4z M180.4,176.2c-0.7,0.1-1.5,0.2-2.1,0.4c-2.8,1-4.8,3.3-4,7.1c0.3,1.3,1,2.5,2.2,3.2
		c1.7,1,3.5,1.1,5.3,0.8c1.5-0.3,2.9-0.9,3.7-2.3c1.3-2.1,1.1-4.4-0.1-6.5C184.4,177,182.5,176.3,180.4,176.2z M237.6,205.7
		c-0.1,3.4,2.3,5.8,6,5.9c3.5,0.1,6.1-2.3,6.2-5.6c0.1-3.4-2.3-5.9-5.6-6.1C240.9,199.8,237.5,202.2,237.6,205.7z M247.4,108.2
		c0.1-1.1-0.3-2.2-1-3.2c-1.3-2-4.3-3.1-7.2-2c-4,1.5-4.9,5.3-3,8.5c1.1,1.9,2.9,2.5,5,2.5C245,114.1,247.5,111.6,247.4,108.2z"/>
	<path class="st0" d="M215,165.6c0.5-1.1,1.3-1.8,1.9-2.5c1-1.1,2.2-1.5,3.7-1.4c7.5,0.1,14.9,0,22.4,0c7.1,0,14.3,0,21.4-0.1
		c2.1,0,3.2,1.1,4.1,2.7c0.2,0.4,0.4,0.8,0.7,1.1c0.9,0.8,1.2,2,1.7,2.9c0.6,1.2,1.2,2.2,1.9,3.3c0.4,0.7,0.9,1.3,1.2,2
		c0.4,0.9,1.3,1.5,2.5,1.5c1.3,0,2.5,0,3.8,0c6.1,0,12.1,0,18.2-0.1c1,0,1.2,0.2,1.2,1.2c0,0.6,0,1.2,0,1.8c0,1.8-1.2,3-3,3
		c-6.2,0-12.4,0-18.7,0c-2.8,0-5.7,0-8.5,0c-0.7,0-1.3-0.1-1.8-0.6c-1-0.8-2-1.8-2.4-3.1c-0.2-0.7-0.6-1.3-1-1.9
		c-0.5-0.9-1-1.8-1.6-2.6c-0.4-0.7-0.9-1.2-1.2-2c-0.2-0.7-0.8-1.3-1.1-2.1c-0.2-0.5-0.5-0.9-0.7-1.3c-0.4-0.7-0.8-1.4-1.8-1.5
		c-0.8-0.1-1.6-0.3-2.4-0.3c-6.1,0-12.2,0-18.3,0c-5.6,0-11.2,0-16.8,0c-1.4,0-2.8,0-4.3,0C215.8,165.8,215.5,165.7,215,165.6z"/>
	<path class="st0" d="M288,161.6c3.8,0,7.6,0,11.4,0c1.1,0,1.2,0.1,1.2,1.2c0,1.6,0,3.2,0,4.7c0,1.5-1.2,2.8-2.8,2.8
		c-1.8,0-3.6,0-5.4,0c-3.5,0-6.9-0.1-10.4,0c-1.9,0.1-3.2-0.8-4.3-2.2c-1.1-1.3-2-2.8-3-4.2c-0.6-0.9,0.1-2.2,1.2-2.4
		c0.3-0.1,0.7,0,1,0C280.7,161.7,284.4,161.7,288,161.6C288,161.7,288,161.7,288,161.6z"/>
	<path class="st0" d="M284.9,155.9c-4.1,0-8.1,0-12.2,0c-1.3,0-2.3-0.4-3.1-1.4c-0.7-0.7-1.5-1.3-1.6-2.5c0-0.2-0.3-0.4-0.5-0.6
		c-0.3-0.3-0.4-0.7-0.1-1c0.2-0.2,0.5-0.5,0.8-0.5c0.7-0.1,1.4,0,2.1,0c1.8,0,3.7,0,5.5,0c1,0,1.9,0.3,2.5,1c1.7,2,3.8,1.8,6,1.6
		c1.4-0.1,2.6-1,3.8-1.8c0.7-0.5,1.5-0.9,2.4-0.8c3,0,6,0,9,0c1,0,1.1,0.2,1.2,1.1c0,0.7,0,1.3,0,2c0,1.7-1.3,3-3,3
		C293.4,155.9,289.1,155.9,284.9,155.9C284.9,155.9,284.9,155.9,284.9,155.9z"/>
	<g>
		<path class="st1" d="M363.1,94.4v42.5c3.9-3.9,8.1-6.8,12.6-8.7c4.5-1.9,9.3-2.9,14.5-2.9c11.2,0,20.7,4.2,28.5,12.7
			c7.8,8.4,11.7,19.3,11.7,32.5c0,12.8-4,23.4-12.1,32c-8.1,8.6-17.7,12.9-28.7,12.9c-4.9,0-9.5-0.9-13.8-2.6
			c-4.3-1.8-8.5-4.6-12.7-8.6v9.1h-21.3V94.4H363.1z M385.7,145.1c-6.8,0-12.4,2.3-16.8,6.9c-4.5,4.6-6.7,10.7-6.7,18.1
			c0,7.6,2.2,13.8,6.7,18.5c4.5,4.7,10.1,7,16.8,7c6.6,0,12.1-2.4,16.6-7.2c4.5-4.8,6.7-10.9,6.7-18.3c0-7.3-2.2-13.4-6.6-18.1
			C398,147.4,392.4,145.1,385.7,145.1z"/>
		<path class="st1" d="M511.4,127.4h21.5v85.6h-21.5V204c-4.2,4-8.4,6.9-12.6,8.6c-4.2,1.8-8.8,2.6-13.7,2.6
			c-11.1,0-20.6-4.3-28.7-12.9c-8.1-8.6-12.1-19.2-12.1-32c0-13.2,3.9-24.1,11.7-32.5c7.8-8.4,17.3-12.7,28.5-12.7
			c5.1,0,10,1,14.5,2.9c4.5,1.9,8.7,4.9,12.5,8.7V127.4z M488.8,145.1c-6.6,0-12.2,2.3-16.6,7c-4.4,4.7-6.6,10.7-6.6,18.1
			c0,7.4,2.2,13.5,6.7,18.3c4.5,4.8,10,7.2,16.5,7.2c6.7,0,12.3-2.3,16.8-7c4.4-4.7,6.7-10.8,6.7-18.5c0-7.5-2.2-13.5-6.7-18.1
			C501.2,147.4,495.6,145.1,488.8,145.1z"/>
		<path class="st1" d="M549.6,127.4H568v10.8c2-4.3,4.6-7.5,7.9-9.7c3.3-2.2,6.9-3.3,10.9-3.3c2.8,0,5.7,0.7,8.7,2.2l-6.7,18.5
			c-2.5-1.3-4.6-1.9-6.2-1.9c-3.3,0-6.1,2-8.4,6.1c-2.3,4.1-3.4,12.1-3.4,24.1l0.1,4.2v34.6h-21.3V127.4z"/>
		<path class="st0" d="M690.7,145.2l-8.7,5.4c-7.5-10-17.8-15-30.9-15c-10.4,0-19.1,3.4-26,10.1c-6.9,6.7-10.3,14.9-10.3,24.5
			c0,6.2,1.6,12.1,4.8,17.6c3.2,5.5,7.5,9.8,13.1,12.8c5.5,3,11.7,4.6,18.6,4.6c12.6,0,22.9-5,30.8-15l8.7,5.7
			c-4.1,6.2-9.6,10.9-16.5,14.3c-6.9,3.4-14.8,5.1-23.6,5.1c-13.5,0-24.8-4.3-33.7-12.9c-8.9-8.6-13.4-19.1-13.4-31.4
			c0-8.3,2.1-16,6.3-23.1c4.2-7.1,9.9-12.7,17.2-16.6c7.3-4,15.5-6,24.5-6c5.7,0,11.1,0.9,16.4,2.6c5.3,1.7,9.7,4,13.4,6.8
			C685,137.4,688.1,140.9,690.7,145.2z"/>
		<path class="st0" d="M797.2,127.4v85.6h-10.9v-14.7c-4.6,5.6-9.8,9.8-15.5,12.7c-5.7,2.8-12,4.3-18.9,4.3
			c-12.1,0-22.5-4.4-31.1-13.2c-8.6-8.8-12.9-19.5-12.9-32.1c0-12.3,4.3-22.9,13-31.6c8.7-8.8,19.1-13.1,31.2-13.1
			c7,0,13.4,1.5,19.1,4.5c5.7,3,10.7,7.5,15,13.5v-15.7H797.2z M753.2,135.9c-6.1,0-11.8,1.5-17,4.5c-5.2,3-9.3,7.2-12.4,12.7
			c-3.1,5.5-4.6,11.2-4.6,17.3c0,6,1.5,11.8,4.6,17.3c3.1,5.5,7.2,9.8,12.5,12.9c5.2,3.1,10.8,4.6,16.8,4.6c6,0,11.7-1.5,17.1-4.6
			c5.4-3,9.6-7.2,12.5-12.3c2.9-5.2,4.4-11,4.4-17.5c0-9.9-3.3-18.2-9.8-24.8C770.7,139.2,762.7,135.9,753.2,135.9z"/>
		<path class="st0" d="M821.9,127.4h11v14.8c3.8-5.5,7.8-9.4,11.8-12c5.6-3.4,11.4-5,17.6-5c4.1,0,8.1,0.8,11.8,2.4
			c3.7,1.6,6.8,3.8,9.1,6.5c2.4,2.7,4.4,6.6,6.1,11.6c3.7-6.7,8.2-11.8,13.7-15.3c5.5-3.5,11.4-5.2,17.7-5.2
			c5.9,0,11.1,1.5,15.7,4.5c4.5,3,7.9,7.2,10.1,12.5c2.2,5.4,3.3,13.4,3.3,24.1v46.8h-11.3v-46.8c0-9.2-0.7-15.5-2-18.9
			c-1.3-3.4-3.5-6.2-6.7-8.3c-3.2-2.1-6.9-3.1-11.3-3.1c-5.3,0-10.2,1.6-14.6,4.7c-4.4,3.1-7.6,7.3-9.7,12.6c-2,5.2-3.1,14-3.1,26.3
			v33.5h-11v-43.8c0-10.3-0.6-17.4-1.9-21.1c-1.3-3.7-3.5-6.7-6.7-8.9c-3.2-2.2-7-3.3-11.4-3.3c-5.1,0-9.9,1.5-14.3,4.6
			c-4.4,3.1-7.7,7.2-9.8,12.4c-2.1,5.2-3.2,13.1-3.2,23.9v36.3h-11V127.4z"/>
		<path class="st0" d="M973.4,127.4h11v15.7c4.4-6,9.4-10.5,15-13.5c5.7-3,12-4.5,19-4.5c12.2,0,22.6,4.4,31.2,13.1
			c8.7,8.8,13,19.3,13,31.6c0,12.6-4.3,23.3-12.9,32.1c-8.6,8.8-18.9,13.2-31,13.2c-6.8,0-13.1-1.4-18.8-4.3
			c-5.7-2.8-10.9-7.1-15.5-12.7v46h-11V127.4z M1017.5,135.9c-9.5,0-17.6,3.3-24.1,10c-6.5,6.7-9.8,14.9-9.8,24.8
			c0,6.5,1.5,12.3,4.4,17.5c2.9,5.2,7.1,9.3,12.5,12.3c5.4,3,11.1,4.6,17.2,4.6c5.9,0,11.5-1.5,16.7-4.6c5.2-3.1,9.4-7.4,12.4-12.9
			c3.1-5.5,4.6-11.3,4.6-17.3c0-6.1-1.5-11.8-4.6-17.3c-3.1-5.5-7.2-9.7-12.4-12.7C1029.2,137.4,1023.6,135.9,1017.5,135.9z"/>
	</g>
	<g>
		<path class="st1" d="M811.2,73.1l-2.8,2.1c-1.5-2-3.4-3.5-5.6-4.6s-4.5-1.6-7.1-1.6c-2.8,0-5.4,0.7-7.9,2
			c-2.4,1.4-4.3,3.2-5.6,5.5c-1.3,2.3-2,4.9-2,7.7c0,4.3,1.5,7.9,4.4,10.8c3,2.9,6.7,4.3,11.2,4.3c5,0,9.1-1.9,12.5-5.8l2.8,2.1
			c-1.8,2.3-4,4-6.6,5.2s-5.6,1.8-8.9,1.8c-6.2,0-11.1-2.1-14.7-6.2c-3-3.5-4.5-7.7-4.5-12.6c0-5.2,1.8-9.6,5.5-13.1
			c3.6-3.5,8.2-5.3,13.7-5.3c3.3,0,6.3,0.7,9,2C807.3,68.9,809.5,70.7,811.2,73.1z"/>
		<path class="st1" d="M815.5,66.5h4.1l9.1,14.6l8.9-14.6h4.1L830.5,85V102H827V85L815.5,66.5z"/>
		<path class="st1" d="M847.7,66.5h7c2.8,0,5,0.3,6.5,1c1.5,0.7,2.7,1.7,3.6,3.1c0.9,1.4,1.3,2.9,1.3,4.6c0,1.6-0.4,3-1.2,4.3
			c-0.8,1.3-1.9,2.3-3.4,3.1c1.8,0.6,3.3,1.4,4.3,2.2c1,0.8,1.8,1.9,2.3,3.1c0.6,1.2,0.8,2.5,0.8,3.9c0,2.8-1,5.3-3.1,7.2
			s-4.9,3-8.4,3h-9.7V66.5z M851.1,70v11.4h2c2.5,0,4.3-0.2,5.4-0.7c1.2-0.5,2.1-1.2,2.8-2.2c0.7-1,1-2.1,1-3.3
			c0-1.6-0.6-2.9-1.7-3.8c-1.1-0.9-2.9-1.4-5.4-1.4H851.1z M851.1,84.9v13.6h4.4c2.6,0,4.5-0.3,5.7-0.8c1.2-0.5,2.2-1.3,2.9-2.4
			c0.7-1.1,1.1-2.2,1.1-3.5c0-1.6-0.5-2.9-1.5-4.1c-1-1.2-2.4-2-4.2-2.4c-1.2-0.3-3.3-0.4-6.3-0.4H851.1z"/>
		<path class="st1" d="M875.9,66.5h20.3V70h-16.8v11.1h16.6v3.5h-16.6v13.9h16.6v3.5h-20.2V66.5z"/>
		<path class="st1" d="M902.6,66.5h7.1c3.9,0,6.6,0.2,8,0.5c2.1,0.5,3.8,1.5,5.1,3.1c1.3,1.6,2,3.5,2,5.9c0,1.9-0.5,3.6-1.4,5.1
			c-0.9,1.5-2.2,2.6-3.9,3.3c-1.7,0.7-4,1.1-7,1.1l12.8,16.5h-4.4l-12.8-16.5h-2V102h-3.5V66.5z M906.1,70V82l6.1,0
			c2.4,0,4.1-0.2,5.3-0.7c1.1-0.4,2-1.2,2.7-2.2c0.6-1,1-2.1,1-3.3c0-1.2-0.3-2.3-1-3.2c-0.6-1-1.5-1.7-2.5-2.1
			c-1-0.4-2.8-0.6-5.2-0.6H906.1z"/>
		<path class="st1" d="M944,66.5h3.5v23.9c0,3.7-0.3,6.2-0.9,7.7c-0.6,1.4-1.5,2.6-2.9,3.4c-1.3,0.9-3,1.3-4.8,1.3
			c-1.4,0-2.8-0.3-4.2-0.8c-1.4-0.6-2.9-1.5-4.6-2.9l1.9-2.8c1.9,1.3,3.4,2.2,4.6,2.7c0.8,0.4,1.6,0.5,2.4,0.5c1,0,1.9-0.3,2.8-0.9
			s1.4-1.4,1.7-2.4c0.3-1,0.5-3,0.5-5.9V66.5z"/>
		<path class="st1" d="M970.6,66.5l16.5,35.5h-3.8l-5.6-11.7h-15.3L957,102h-4l16.8-35.5H970.6z M970.2,74l-6.1,12.8h12.1L970.2,74z
			"/>
		<path class="st1" d="M989.9,66.5h4.1l9.1,14.6l8.9-14.6h4.1L1004.8,85V102h-3.5V85L989.9,66.5z"/>
		<path class="st1" d="M1036.4,66.5l16.5,35.5h-3.8l-5.6-11.7h-15.3l-5.5,11.7h-4l16.8-35.5H1036.4z M1035.9,74l-6.1,12.8h12.1
			L1035.9,74z"/>
	</g>
</g>
</svg>
