<svg width="100" height="100" viewBox="0 0 100 100" fill="none" xmlns="http://www.w3.org/2000/svg">
<path d="M63.7665 51.2987H63.5067L45.4548 49.7403C44.4158 49.6104 43.5067 49.0909 42.9873 48.0519C42.4678 47.1429 42.4678 45.974 42.9873 45.0649L67.0132 1.55844C67.6626 0.649351 68.7016 0 69.7405 0H77.5327H88.4418C89.6106 0 90.5197 0.519481 91.1691 1.55844C91.6886 2.46753 91.6886 3.63636 91.1691 4.67532L66.4938 49.6104C65.9743 50.6494 64.9353 51.2987 63.7665 51.2987Z" fill="#D32F2F"/>
<path d="M79.221 0H77.6626H69.8704C68.7015 0 67.6626 0.649351 67.1431 1.55844L42.9873 45.0649C42.4678 45.974 42.4678 47.1429 42.9873 48.052C43.5067 48.961 44.4158 49.6104 45.4548 49.7403L54.1561 50.5195L79.221 0Z" fill="#B82929"/>
<path d="M57.5323 43.6364L32.857 1.55844C32.3375 0.649351 31.2985 0 30.2596 0H11.4284C10.3895 0 9.3505 0.519481 8.83102 1.55844C8.31154 2.46753 8.31154 3.63636 8.83102 4.67532L33.6362 49.7403C34.1557 50.7792 35.1947 51.2987 36.3635 51.2987H36.883L55.4544 48.3117C56.4934 48.1818 57.4024 47.5325 57.792 46.6234C58.0518 45.5844 58.0518 44.5455 57.5323 43.6364Z" fill="#F44336"/>
<path d="M18.5713 0H11.4284C10.3895 0 9.3505 0.519481 8.83102 1.55844C8.31154 2.46753 8.31154 3.63636 8.83102 4.67532L33.6362 49.7403C34.1557 50.7792 35.1947 51.2987 36.3635 51.2987H36.883L38.5713 51.039L42.7271 42.7273L18.5713 0Z" fill="#D43A2F"/>
<path d="M50.0001 100C33.8962 100 20.7793 86.8833 20.7793 70.7794C20.7793 54.6755 33.8962 41.5586 50.0001 41.5586C66.104 41.6885 79.2209 54.8053 79.2209 70.7794C79.2209 86.8833 66.104 100 50.0001 100Z" fill="#CD7F32"/>
<path d="M50.0001 100C33.8962 100 20.7793 86.8833 20.7793 70.7794C20.7793 54.6755 33.8962 41.5586 50.0001 41.5586V100Z" fill="#B25B04"/>
<path d="M49.6098 82.2075C48.5708 82.2075 47.5318 82.0776 46.363 81.8179C45.1942 81.5581 44.2851 81.1685 43.5059 80.649C42.9864 80.3893 42.7266 79.9997 42.5968 79.6101C42.4669 79.2205 42.5968 78.8309 42.7266 78.4413C42.8565 78.0516 43.2461 77.9218 43.6357 77.7919C44.0253 77.662 44.4149 77.7919 44.9344 78.0516C45.7136 78.4412 46.4929 78.8309 47.1422 78.9607C47.9214 79.0906 48.5708 79.2205 49.35 79.2205C51.9474 79.2205 53.2461 78.1815 53.2461 76.2335C53.2461 75.3244 52.9864 74.5451 52.337 74.1555C51.6877 73.7659 50.7786 73.5062 49.6098 73.5062H47.7916C47.2721 73.5062 46.8825 73.3763 46.6227 73.1166C46.363 72.8568 46.2331 72.4672 46.2331 71.9477C46.2331 71.4283 46.363 71.0387 46.6227 70.7789C46.8825 70.5192 47.2721 70.3893 47.7916 70.3893H49.2201C50.2591 70.3893 51.1682 70.1296 51.8175 69.6101C52.4669 69.0906 52.7266 68.3114 52.7266 67.4023C52.7266 66.4932 52.4669 65.8438 51.8175 65.4542C51.2981 64.9348 50.389 64.8049 49.35 64.8049C48.7007 64.8049 47.9214 64.9348 47.402 65.0646C46.7526 65.1945 46.1033 65.5841 45.324 65.9737C44.9344 66.2335 44.5448 66.3633 44.1552 66.2335C43.7656 66.1036 43.5059 65.8438 43.376 65.5841C43.2461 65.3244 43.1162 64.9348 43.2461 64.5451C43.376 64.1555 43.6357 63.7659 44.0253 63.5062C45.7136 62.4672 47.6617 61.8179 49.7396 61.8179C51.8175 61.8179 53.5059 62.3374 54.6747 63.2464C55.8435 64.1555 56.363 65.4542 56.363 67.1425C56.363 68.1815 56.1033 69.2205 55.5838 69.9997C55.0643 70.7789 54.2851 71.4283 53.376 71.8179C54.5448 72.0776 55.4539 72.727 56.1033 73.6361C56.7526 74.5451 57.0124 75.5841 57.0124 76.7529C57.0124 78.5711 56.363 79.9997 55.0643 81.0387C53.6357 81.688 51.8175 82.2075 49.6098 82.2075Z" fill="white"/>
</svg>
