<svg width="100" height="100" viewBox="0 0 100 100" fill="none" xmlns="http://www.w3.org/2000/svg">
<g clip-path="url(#clip0)">
<path d="M63.7665 51.2987H63.5068L45.4548 49.7403C44.4158 49.6104 43.5067 49.0909 42.9873 48.0519C42.4678 47.1429 42.4678 45.974 42.9873 45.0649L67.0132 1.55844C67.6626 0.649351 68.7016 0 69.7405 0H77.5327H88.4418C89.6106 0 90.5197 0.519481 91.1691 1.55844C91.6886 2.46753 91.6886 3.63636 91.1691 4.67532L66.4938 49.6104C65.9743 50.6494 64.9353 51.2987 63.7665 51.2987Z" fill="#D32F2F"/>
<path d="M79.221 0H77.6626H69.8704C68.7015 0 67.6626 0.649351 67.1431 1.55844L42.9873 45.0649C42.4678 45.974 42.4678 47.1429 42.9873 48.052C43.5067 48.961 44.4158 49.6104 45.4548 49.7403L54.1561 50.5195L79.221 0Z" fill="#B82929"/>
<path d="M57.5323 43.6364L32.857 1.55844C32.3375 0.649351 31.2985 0 30.2596 0H11.4284C10.3895 0 9.3505 0.519481 8.83102 1.55844C8.31154 2.46753 8.31154 3.63636 8.83102 4.67532L33.6362 49.7403C34.1557 50.7792 35.1947 51.2987 36.3635 51.2987H36.883L55.4544 48.3117C56.4934 48.1818 57.4024 47.5325 57.7921 46.6234C58.0518 45.5844 58.0518 44.5455 57.5323 43.6364Z" fill="#F44336"/>
<path d="M18.5713 0H11.4284C10.3895 0 9.3505 0.519481 8.83102 1.55844C8.31154 2.46753 8.31154 3.63636 8.83102 4.67532L33.6362 49.7403C34.1557 50.7792 35.1947 51.2987 36.3635 51.2987H36.883L38.5713 51.039L42.7271 42.7273L18.5713 0Z" fill="#D43A2F"/>
<path d="M50.0001 100C33.8962 100 20.7793 86.8833 20.7793 70.7794C20.7793 54.6755 33.8962 41.5586 50.0001 41.5586C66.104 41.6885 79.2209 54.8053 79.2209 70.7794C79.2209 86.8833 66.104 100 50.0001 100Z" fill="#FFC107"/>
<path d="M50.0001 100C33.8962 100 20.7793 86.8833 20.7793 70.7794C20.7793 54.6755 33.8962 41.5586 50.0001 41.5586V100Z" fill="#DEA806"/>
<path d="M45.8436 81.8183C44.8046 81.8183 44.2852 81.2988 44.2852 80.2599C44.2852 79.2209 44.8046 78.8313 45.8436 78.8313H49.0904V65.8443L46.6228 67.2729C46.1033 67.5326 45.7137 67.6625 45.3241 67.5326C44.9345 67.4027 44.6748 67.143 44.5449 66.8833C44.415 66.4936 44.2852 66.104 44.415 65.7144C44.5449 65.3248 44.8046 64.9352 45.1942 64.6755L49.0904 62.3378C49.48 62.0781 49.8696 61.9482 50.2592 61.6885C50.6488 61.5586 51.0384 61.4287 51.2981 61.4287C51.6878 61.4287 52.0774 61.5586 52.3371 61.8183C52.5968 62.0781 52.7267 62.3378 52.7267 62.8573V78.8313H55.5839C56.6228 78.8313 57.1423 79.3508 57.1423 80.2599C57.1423 81.2988 56.6228 81.8183 55.5839 81.8183H45.8436Z" fill="white"/>
</g>
<defs>
<clipPath id="clip0">
<rect width="100" height="100" fill="white"/>
</clipPath>
</defs>
</svg>
