<svg width="41" height="41" viewBox="0 0 41 41" fill="none" xmlns="http://www.w3.org/2000/svg">
<path d="M20.5 0C9.19674 0 0 9.19674 0 20.5C0 31.8033 9.19674 41 20.5 41C31.8033 41 41 31.8033 41 20.5C41 9.19674 31.8033 0 20.5 0ZM31.9574 15.1053L18.8559 28.104C18.0852 28.8747 16.8521 28.9261 16.0301 28.1554L9.09399 21.8358C8.27193 21.0652 8.22055 19.7807 8.93985 18.9586C9.71053 18.1366 10.995 18.0852 11.817 18.8559L17.3145 23.891L29.0288 12.1767C29.8509 11.3546 31.1353 11.3546 31.9574 12.1767C32.7794 12.9987 32.7794 14.2832 31.9574 15.1053Z" fill="#E9E9E9"/>
</svg>
