<svg width="41" height="41" viewBox="0 0 41 41" fill="none" xmlns="http://www.w3.org/2000/svg">
<g clip-path="url(#clip0)">
<path d="M37.0349 20.584C37.0349 29.7161 29.632 37.1189 20.5 37.1189C11.3679 37.1189 3.96509 29.7161 3.96509 20.584C3.96509 11.452 11.3679 4.04883 20.5 4.04883C29.632 4.04883 37.0349 11.452 37.0349 20.584Z" fill="black"/>
<path d="M33.2384 20.5841C33.2384 26.6372 29.0171 31.7043 23.3572 33.0002C22.4388 33.2114 21.4823 33.3224 20.5001 33.3224C13.4645 33.3224 7.76172 27.6197 7.76172 20.5841C7.76172 13.5485 13.4645 7.8457 20.5001 7.8457C21.4823 7.8457 22.4388 7.95644 23.3572 8.16789C29.0171 9.46384 33.2384 14.5307 33.2384 20.5841V20.5841Z" fill="#D1000B"/>
<path d="M33.2384 20.5841C33.2384 26.6372 29.0171 31.7044 23.3572 33.0003C17.6973 31.7044 13.4753 26.6372 13.4753 20.5841C13.4753 14.5307 17.6973 9.46392 23.3572 8.16797C29.0171 9.46392 33.2384 14.5307 33.2384 20.5841V20.5841Z" fill="#D1000B"/>
<path d="M10.0392 19.2344H1.2653C0.56649 19.2344 0 19.8009 0 20.4997C0 21.1985 0.56649 21.765 1.2653 21.765H10.0392C10.738 21.765 11.3045 21.1985 11.3045 20.4997C11.3045 19.8009 10.738 19.2344 10.0392 19.2344Z" fill="#870007"/>
<path d="M39.7344 19.2344H30.9609C30.262 19.2344 29.6956 19.8009 29.6956 20.4997C29.6956 21.1985 30.262 21.765 30.9609 21.765H39.7344C40.4332 21.765 41 21.1985 41 20.4997C41 19.8009 40.4335 19.2344 39.7344 19.2344V19.2344Z" fill="#870007"/>
<path d="M20.4999 11.3045C21.1987 11.3045 21.7652 10.738 21.7652 10.0392V1.26561C21.7652 0.566803 21.1987 0 20.4999 0C19.8011 0 19.2346 0.56649 19.2346 1.26561V10.0392C19.2346 10.738 19.8011 11.3045 20.4999 11.3045Z" fill="#870007"/>
<path d="M20.4999 29.6953C19.8011 29.6953 19.2346 30.2618 19.2346 30.9606V39.7342C19.2346 40.433 19.8011 40.9998 20.4999 40.9998C21.1987 40.9998 21.7652 40.4333 21.7652 39.7342V30.9606C21.7652 30.2618 21.1987 29.6953 20.4999 29.6953V29.6953Z" fill="#870007"/>
<path d="M20.5728 13.2959C20.3566 13.2959 20.1602 13.335 20.0029 13.4335L17.4078 15.0063C17.0146 15.2422 16.8379 15.6354 16.8379 16.048C16.8379 16.6573 17.2311 17.267 17.801 17.267C17.9387 17.267 18.1157 17.2275 18.2924 17.1096L18.8627 16.7558V26.7622C18.8627 27.3912 19.6294 27.7056 20.3961 27.7056C21.1627 27.7056 21.9294 27.3912 21.9294 26.7622V14.259C21.9294 13.6694 21.2022 13.2959 20.5728 13.2959V13.2959Z" fill="black"/>
</g>
<defs>
<clipPath id="clip0">
<rect width="41" height="41" fill="white"/>
</clipPath>
</defs>
</svg>
