<svg width="18" height="18" viewBox="0 0 18 18" fill="none" xmlns="http://www.w3.org/2000/svg">
<g clip-path="url(#clip0)">
<path d="M17.9922 6.15837C17.9833 6.10099 17.9651 6.04482 17.943 5.99075C17.938 5.97904 17.938 5.96711 17.9327 5.95524C17.9321 5.95458 17.9311 5.95326 17.9308 5.95261C17.9308 5.95129 17.9301 5.95063 17.9294 5.9498L15.9388 1.723C15.9342 1.71327 15.9256 1.70453 15.9203 1.69464C15.9134 1.68277 15.9111 1.66826 15.9035 1.6565C15.8883 1.63078 15.8675 1.61078 15.8497 1.58786C15.8315 1.56428 15.815 1.53884 15.7949 1.51795C15.7652 1.48696 15.7312 1.46052 15.6966 1.43475C15.6748 1.4176 15.6543 1.39864 15.6306 1.38474C15.5903 1.3605 15.5467 1.34319 15.5025 1.32665C15.4804 1.31824 15.459 1.30538 15.4358 1.29895C15.3672 1.2796 15.2959 1.26855 15.222 1.26855H8.95811H3.49034C3.42071 1.26855 3.35322 1.27828 3.28755 1.29543C3.26463 1.30153 3.24369 1.31346 3.22105 1.3212C3.18082 1.33637 3.13954 1.34962 3.10179 1.37122C3.07766 1.38512 3.05788 1.4037 3.0354 1.41892C3.00303 1.44184 2.96956 1.46376 2.94082 1.49152C2.92054 1.51147 2.90438 1.53504 2.88635 1.55752C2.86508 1.58247 2.84019 1.60506 2.82282 1.63342L0.119439 5.86033C0.109381 5.87682 0.1046 5.8955 0.0954771 5.91298C0.087728 5.92683 0.0748678 5.9387 0.068108 5.95387C0.0610184 5.96975 0.0606887 5.9864 0.0539289 6.00157C0.0394199 6.04032 0.0278788 6.07895 0.0187558 6.11907C0.0119959 6.15089 0.00622534 6.18205 0.00292786 6.21343C-0.000864238 6.253 -0.00053449 6.29246 0.001444 6.33242C0.00391711 6.36495 0.00622534 6.39694 0.0113364 6.42859C0.018426 6.4675 0.0306816 6.504 0.0430472 6.54148C0.0542586 6.57335 0.0643159 6.60517 0.0793744 6.63524C0.0843206 6.64562 0.086464 6.65749 0.0914102 6.66821C0.105589 6.69459 0.126528 6.71525 0.143895 6.739C0.157744 6.7596 0.166153 6.78126 0.181981 6.79972L8.35291 16.4507C8.49382 16.617 8.70503 16.7352 8.91557 16.7292C8.91821 16.7292 8.9209 16.7305 8.92266 16.7305C8.93442 16.7311 8.94563 16.7311 8.9575 16.7311C8.95783 16.7311 8.95783 16.7311 8.95783 16.7311C8.95783 16.7311 8.95849 16.7311 8.95915 16.7311C9.02977 16.7311 9.09908 16.718 9.16574 16.7001C9.18552 16.6939 9.20339 16.6876 9.22317 16.68C9.27236 16.6629 9.32023 16.6398 9.36573 16.6127C9.3809 16.6038 9.39706 16.5949 9.41195 16.585C9.46576 16.5476 9.51621 16.5048 9.55979 16.453L17.8146 6.8022C17.8251 6.78967 17.8311 6.7745 17.8404 6.76125C17.8535 6.7446 17.8701 6.73075 17.8813 6.7119C17.8932 6.69327 17.8991 6.67233 17.909 6.65238C17.9229 6.62683 17.936 6.60105 17.9463 6.57335C17.9618 6.53312 17.9724 6.49229 17.9817 6.4514C17.9876 6.42365 17.9942 6.39727 17.9968 6.36957C18.0021 6.32401 18.0001 6.2796 17.9968 6.23443C17.9948 6.20772 17.9961 6.18277 17.9922 6.15837Z" fill="#616161"/>
</g>
<defs>
<clipPath id="clip0">
<rect width="18" height="18" fill="white"/>
</clipPath>
</defs>
</svg>
