<svg width="50" height="50" viewBox="0 0 50 50" fill="none" xmlns="http://www.w3.org/2000/svg">
<path d="M18.9065 7C18.9065 7 12.5393 7.4375 8.37524 10.7812C8.35571 10.7891 8.33228 10.8008 8.31274 10.8125C7.59009 11.4805 7.04712 12.5156 6.37524 14C5.70337 15.4844 4.99243 17.3945 4.34399 19.5312C3.05103 23.8086 2.00024 29.0586 2.00024 34C1.99634 34.1758 2.03931 34.3477 2.12524 34.5C3.58618 37.0664 6.27368 38.6172 8.78149 39.5938C11.2893 40.5703 13.6057 40.9609 14.7815 41C15.1135 41.0117 15.4299 40.8594 15.6252 40.5938L18.0627 37.2188C20.0276 37.6836 22.3323 38 25.0002 38C27.6682 38 29.9729 37.6836 31.9377 37.2188L34.3752 40.5938C34.5706 40.8594 34.887 41.0117 35.219 41C36.3948 40.9609 38.7112 40.5703 41.219 39.5938C43.7268 38.6172 46.4143 37.0664 47.8752 34.5C47.9612 34.3477 48.0042 34.1758 48.0002 34C48.0002 29.0586 46.9495 23.8086 45.6565 19.5312C45.0081 17.3945 44.2971 15.4844 43.6252 14C42.9534 12.5156 42.4104 11.4805 41.6877 10.8125C41.6682 10.8008 41.6448 10.7891 41.6252 10.7812C37.4612 7.4375 31.094 7 31.094 7C31.0198 6.99219 30.9495 6.99219 30.8752 7C30.5276 7.04687 30.2346 7.27344 30.094 7.59375C30.094 7.59375 29.7542 8.33984 29.5315 9.40625C27.5823 9.09375 25.9417 9 25.0002 9C24.0588 9 22.4182 9.09375 20.469 9.40625C20.2463 8.33984 19.9065 7.59375 19.9065 7.59375C19.7346 7.20312 19.3323 6.96484 18.9065 7ZM18.2815 9.15625C18.3557 9.35937 18.4065 9.55078 18.469 9.78125C16.2151 10.3047 13.7463 11.1602 11.4377 12.5937C11.0745 12.7461 10.8362 13.0977 10.8245 13.4922C10.8166 13.8828 11.0393 14.2461 11.3909 14.418C11.7463 14.5859 12.1682 14.5352 12.469 14.2812C17.1018 11.4102 22.9963 11 25.0002 11C27.0042 11 32.8987 11.4102 37.5315 14.2812C37.8323 14.5352 38.2542 14.5859 38.6096 14.418C38.9612 14.2461 39.1838 13.8828 39.176 13.4922C39.1643 13.0977 38.926 12.7461 38.5627 12.5937C36.2542 11.1602 33.7854 10.3047 31.5315 9.78125C31.594 9.55078 31.6448 9.35937 31.719 9.15625C32.8596 9.29687 37.2932 9.89453 40.3127 12.2812C40.5081 12.4609 41.1877 13.4609 41.8127 14.8437C42.4377 16.2266 43.094 18.0273 43.719 20.0938C44.9377 24.125 45.9221 29.0977 45.969 33.6562C44.8323 35.4961 42.6995 36.8633 40.5002 37.7188C38.5002 38.4961 36.6331 38.8438 35.6565 38.9375L33.969 36.6562C34.8284 36.3789 35.6018 36.0781 36.2815 35.7812C38.8049 34.6719 40.1565 33.5 40.1565 33.5C40.5706 33.1289 40.6057 32.4922 40.2346 32.0781C39.8635 31.6641 39.2268 31.6289 38.8127 32C38.8127 32 37.7659 32.957 35.469 33.9688C34.6252 34.3398 33.6018 34.707 32.4377 35.0312C32.1682 35 31.8987 35.0781 31.6877 35.25C29.8245 35.7031 27.6096 36 25.0002 36C22.3713 36 20.1526 35.6758 18.2815 35.2188C18.0706 35.0781 17.8127 35.0195 17.5627 35.0625C16.3948 34.7383 15.3792 34.3398 14.5315 33.9688C12.2346 32.957 11.1877 32 11.1877 32C10.9612 31.7891 10.6487 31.6992 10.344 31.75C9.95728 31.8086 9.63696 32.0859 9.53149 32.4648C9.42212 32.8398 9.54712 33.2461 9.84399 33.5C9.84399 33.5 11.1956 34.6719 13.719 35.7812C14.3987 36.0781 15.1721 36.3789 16.0315 36.6562L14.344 38.9375C13.3674 38.8438 11.5002 38.4961 9.50024 37.7188C7.30103 36.8633 5.16821 35.4961 4.03149 33.6562C4.07837 29.0977 5.06274 24.125 6.28149 20.0938C6.90649 18.0273 7.56274 16.2266 8.18774 14.8437C8.81274 13.4609 9.49243 12.4609 9.68774 12.2812C12.7073 9.89453 17.1409 9.29687 18.2815 9.15625ZM18.5002 21C15.9495 21 14.0002 23.3164 14.0002 26C14.0002 28.6836 15.9495 31 18.5002 31C21.051 31 23.0002 28.6836 23.0002 26C23.0002 23.3164 21.051 21 18.5002 21ZM31.5002 21C28.9495 21 27.0002 23.3164 27.0002 26C27.0002 28.6836 28.9495 31 31.5002 31C34.051 31 36.0002 28.6836 36.0002 26C36.0002 23.3164 34.051 21 31.5002 21ZM18.5002 23C19.8167 23 21.0002 24.2656 21.0002 26C21.0002 27.7344 19.8167 29 18.5002 29C17.1838 29 16.0002 27.7344 16.0002 26C16.0002 24.2656 17.1838 23 18.5002 23ZM31.5002 23C32.8167 23 34.0002 24.2656 34.0002 26C34.0002 27.7344 32.8167 29 31.5002 29C30.1838 29 29.0002 27.7344 29.0002 26C29.0002 24.2656 30.1838 23 31.5002 23Z" fill="white"/>
</svg>
