<svg width="35" height="35" viewBox="0 0 35 35" fill="none" xmlns="http://www.w3.org/2000/svg">
<path d="M32.597 2.4029C35.8009 5.60602 35.8009 10.7999 32.597 14.0038L25.8377 20.7638C24.9277 21.6738 23.8577 22.3246 22.7177 22.7177C20.9838 23.3154 19.09 23.3154 17.3561 22.7177C16.2161 22.3246 15.1461 21.6738 14.2361 20.7638C13.3269 19.8538 12.6754 18.7838 12.2823 17.6438L12.4261 17.5C12.2823 17.6438 14.9614 14.9127 14.9614 14.9127L17.5 17.5C18.8985 18.8993 21.1747 18.8993 22.574 17.5L22.7178 17.3562L29.334 10.74C30.7325 9.34146 30.7325 7.06529 29.334 5.66604C27.9348 4.26754 25.6586 4.26754 24.2601 5.66604L17.6439 12.2823L14.963 13.3725L12.2822 12.2822C12.6753 11.143 13.3261 10.0722 14.2361 9.16222L20.9961 2.4029C24.2 -0.800968 29.3939 -0.800968 32.597 2.4029Z" fill="#05346F"/>
<path d="M17.644 12.2822C18.7832 12.6753 19.8533 13.3268 20.7633 14.2368C21.6733 15.146 22.3248 16.2168 22.7179 17.356L22.5741 17.4999C21.1748 18.8991 18.8986 18.8991 17.5001 17.4999C16.1009 16.1014 13.8247 16.1014 12.4262 17.4999L12.2824 17.6437L5.66616 24.2599C4.26691 25.6592 4.26691 27.9353 5.66616 29.3338C7.06466 30.7331 9.34082 30.7331 10.7401 29.3338L17.3563 22.7176C19.0902 23.3153 20.984 23.3153 22.7179 22.7176C22.3248 23.8576 21.6733 24.9276 20.7633 25.8376L14.004 32.5977C10.8001 35.8008 5.60621 35.8008 2.40234 32.5977C-0.80078 29.3938 -0.80078 24.1999 2.40234 20.996L9.1624 14.2367C10.0724 13.3267 11.1424 12.6752 12.2824 12.2821C14.0163 11.6846 15.9102 11.6846 17.644 12.2822Z" fill="#D1000B"/>
</svg>
