<svg width="150" height="150" viewBox="0 0 150 150" fill="none" xmlns="http://www.w3.org/2000/svg">
<path d="M19.3359 4.6875H50.9766C59.0666 4.6875 65.625 11.2459 65.625 19.3359V50.9766C65.625 59.0666 59.0666 65.625 50.9766 65.625H19.3359C11.2459 65.625 4.6875 59.0666 4.6875 50.9766V19.3359C4.6875 11.2459 11.2459 4.6875 19.3359 4.6875Z" fill="#EB202B"/>
<path d="M99.0234 4.6875H130.664C138.754 4.6875 145.312 11.2459 145.312 19.3359V50.9766C145.312 59.0666 138.754 65.625 130.664 65.625H99.0234C90.9334 65.625 84.375 59.0666 84.375 50.9766V19.3359C84.375 11.2459 90.9334 4.6875 99.0234 4.6875Z" fill="#EB202B"/>
<path d="M114.844 84.375C131.671 84.375 145.312 98.0162 145.312 114.844C145.312 131.671 131.671 145.312 114.844 145.312C98.0162 145.312 84.375 131.671 84.375 114.844C84.375 98.0162 98.0162 84.375 114.844 84.375Z" fill="#1050A0"/>
<path d="M19.3359 84.375H50.9766C59.0666 84.375 65.625 90.9334 65.625 99.0234V130.664C65.625 138.754 59.0666 145.312 50.9766 145.312H19.3359C11.2459 145.312 4.6875 138.754 4.6875 130.664V99.0234C4.6875 90.9334 11.2459 84.375 19.3359 84.375Z" fill="#EB202B"/>
<path d="M65.625 19.3359V50.9766C65.625 59.0654 59.0654 65.625 50.9766 65.625H39.2578C47.3467 65.625 53.9062 59.0654 53.9062 50.9766V19.3359C53.9062 11.2471 47.3467 4.6875 39.2578 4.6875H50.9766C59.0654 4.6875 65.625 11.2471 65.625 19.3359Z" fill="#870007"/>
<path d="M145.312 19.3359V50.9766C145.312 59.0654 138.753 65.625 130.664 65.625H118.945C127.034 65.625 133.594 59.0654 133.594 50.9766V19.3359C133.594 11.2471 127.034 4.6875 118.945 4.6875H130.664C138.753 4.6875 145.312 11.2471 145.312 19.3359Z" fill="#870007"/>
<path d="M145.312 114.844C145.312 123.258 141.902 130.875 136.389 136.389C130.875 141.902 123.258 145.312 114.844 145.312C112.84 145.312 110.88 145.119 108.984 144.747C115.049 143.569 120.469 140.59 124.67 136.389C130.184 130.875 133.594 123.258 133.594 114.844C133.594 100.02 123.009 87.6709 108.984 84.9404C110.88 84.5684 112.84 84.375 114.844 84.375C131.672 84.375 145.312 98.0156 145.312 114.844V114.844Z" fill="#05346F"/>
<path d="M65.625 99.0234V130.664C65.625 138.753 59.0654 145.312 50.9766 145.312H39.2578C47.3467 145.312 53.9062 138.753 53.9062 130.664V99.0234C53.9062 90.9346 47.3467 84.375 39.2578 84.375H50.9766C59.0654 84.375 65.625 90.9346 65.625 99.0234Z" fill="#870007"/>
<path d="M50.9766 70.3125H19.3359C8.67393 70.3125 0 61.6386 0 50.9766V19.3359C0 8.67393 8.67393 0 19.3359 0H50.9766C61.6386 0 70.3125 8.67393 70.3125 19.3359V50.9766C70.3125 61.6386 61.6386 70.3125 50.9766 70.3125ZM19.3359 9.375C13.8434 9.375 9.375 13.8434 9.375 19.3359V50.9766C9.375 56.4691 13.8434 60.9375 19.3359 60.9375H50.9766C56.4691 60.9375 60.9375 56.4691 60.9375 50.9766V19.3359C60.9375 13.8434 56.4691 9.375 50.9766 9.375H19.3359Z" fill="black"/>
<path d="M130.664 70.3125H99.0234C88.3614 70.3125 79.6875 61.6386 79.6875 50.9766V19.3359C79.6875 8.67393 88.3614 0 99.0234 0H130.664C141.326 0 150 8.67393 150 19.3359V50.9766C150 61.6386 141.326 70.3125 130.664 70.3125ZM99.0234 9.375C93.5309 9.375 89.0625 13.8434 89.0625 19.3359V50.9766C89.0625 56.4691 93.5309 60.9375 99.0234 60.9375H130.664C136.157 60.9375 140.625 56.4691 140.625 50.9766V19.3359C140.625 13.8434 136.157 9.375 130.664 9.375H99.0234Z" fill="black"/>
<path d="M114.844 150C95.4586 150 79.6875 134.229 79.6875 114.844C79.6875 95.4586 95.4586 79.6875 114.844 79.6875C134.229 79.6875 150 95.4586 150 114.844C150 134.229 134.229 150 114.844 150ZM114.844 89.0625C100.628 89.0625 89.0625 100.628 89.0625 114.844C89.0625 129.059 100.628 140.625 114.844 140.625C129.059 140.625 140.625 129.059 140.625 114.844C140.625 100.628 129.059 89.0625 114.844 89.0625Z" fill="black"/>
<path d="M50.9766 150H19.3359C8.67393 150 0 141.326 0 130.664V99.0234C0 88.3614 8.67393 79.6875 19.3359 79.6875H50.9766C61.6386 79.6875 70.3125 88.3614 70.3125 99.0234V130.664C70.3125 141.326 61.6386 150 50.9766 150ZM19.3359 89.0625C13.8434 89.0625 9.375 93.5309 9.375 99.0234V130.664C9.375 136.157 13.8434 140.625 19.3359 140.625H50.9766C56.4691 140.625 60.9375 136.157 60.9375 130.664V99.0234C60.9375 93.5309 56.4691 89.0625 50.9766 89.0625H19.3359Z" fill="black"/>
</svg>
