<svg width="60" height="60" viewBox="0 0 60 60" fill="none" xmlns="http://www.w3.org/2000/svg">
<path d="M40.5469 37.3828C39.8998 37.3828 39.375 37.9075 39.375 38.5547V46.6406C39.375 49.8715 36.7465 52.5 33.5156 52.5H20.8631C20.2161 52.5 19.6917 53.0242 19.6912 53.6711L19.6896 56.001L16.8926 53.2041C16.7115 52.7884 16.2971 52.5 15.8179 52.5H8.20312C4.97227 52.5 2.34375 49.8715 2.34375 46.6406V28.5938C2.34375 25.3629 4.97227 22.7344 8.20312 22.7344H20.0391C20.6862 22.7344 21.2109 22.2097 21.2109 21.5625C21.2109 20.9153 20.6862 20.3906 20.0391 20.3906H8.20312C3.67992 20.3906 0 24.0705 0 28.5938V46.6406C0 51.1638 3.67992 54.8438 8.20312 54.8438H15.2177L20.0307 59.6568C20.2549 59.8809 20.5546 60 20.8596 60C21.0104 60 21.1627 59.9708 21.3074 59.9109C21.7453 59.7298 22.0309 59.3027 22.0312 58.8289L22.0341 54.8438H33.5156C38.0388 54.8438 41.7188 51.1638 41.7188 46.6406V38.5547C41.7188 37.9075 41.194 37.3828 40.5469 37.3828Z" fill="black"/>
<path d="M42.9674 0H40.0015C30.6096 0 22.9688 7.64086 22.9688 17.0327C22.9688 26.4246 30.6096 34.0654 40.0014 34.0654H42.9673C44.4332 34.0654 45.8841 33.8791 47.2903 33.5112L51.6716 37.89C51.8958 38.1139 52.1953 38.233 52.5002 38.233C52.6513 38.233 52.8036 38.2038 52.9486 38.1437C53.3864 37.9623 53.6719 37.535 53.6719 37.0611V30.2811C55.5268 28.7789 57.0677 26.8813 58.1491 24.7614C59.3774 22.3536 60 19.7534 60 17.0327C60 7.64086 52.3591 0 42.9674 0ZM51.7949 28.7736C51.5011 28.995 51.3281 29.3416 51.3281 29.7097V34.2332L48.4604 31.367C48.2373 31.1441 47.938 31.024 47.6319 31.024C47.5171 31.024 47.4011 31.041 47.2879 31.0758C45.893 31.5045 44.4394 31.7217 42.9674 31.7217H40.0015C31.9018 31.7217 25.3125 25.1323 25.3125 17.0327C25.3125 8.9332 31.902 2.34375 40.0015 2.34375H42.9674C51.0669 2.34375 57.6562 8.9332 57.6562 17.0327C57.6562 21.6887 55.5199 25.9682 51.7949 28.7736Z" fill="black"/>
<path d="M46.7603 12.8222C46.5912 10.3689 44.6135 8.39123 42.1601 8.22213C40.7693 8.12662 39.442 8.59572 38.4261 9.54412C37.4242 10.4794 36.8496 11.8015 36.8496 13.1715C36.8496 13.8188 37.3744 14.3434 38.0215 14.3434C38.6686 14.3434 39.1934 13.8188 39.1934 13.1715C39.1934 12.4381 39.4889 11.7583 40.0254 11.2575C40.5614 10.7572 41.262 10.5096 41.9991 10.5605C43.2914 10.6496 44.3331 11.6912 44.4221 12.9835C44.5121 14.2886 43.6559 15.4419 42.3863 15.726C41.3576 15.9562 40.6392 16.8501 40.6392 17.8997V20.7151C40.6392 21.3624 41.164 21.887 41.8111 21.887C42.4583 21.887 42.983 21.3624 42.9829 20.7151V17.9933C45.3442 17.4229 46.9284 15.2622 46.7603 12.8222Z" fill="black"/>
<path d="M42.641 24.523C42.423 24.3051 42.1207 24.1797 41.8125 24.1797C41.5043 24.1797 41.202 24.3051 40.984 24.523C40.766 24.741 40.6406 25.0434 40.6406 25.3516C40.6406 25.6609 40.7661 25.9633 40.984 26.1813C41.202 26.3992 41.5043 26.5234 41.8125 26.5234C42.1207 26.5234 42.423 26.3992 42.641 26.1813C42.859 25.9621 42.9844 25.6609 42.9844 25.3516C42.9844 25.0434 42.8589 24.741 42.641 24.523Z" fill="black"/>
<path d="M32.2266 36.3281H7.5C6.85289 36.3281 6.32812 36.8528 6.32812 37.5C6.32812 38.1472 6.85289 38.6719 7.5 38.6719H32.2266C32.8738 38.6719 33.3984 38.1472 33.3984 37.5C33.3984 36.8528 32.8737 36.3281 32.2266 36.3281Z" fill="black"/>
<path d="M33.055 43.234C32.8371 43.016 32.5348 42.8906 32.2266 42.8906C31.9184 42.8906 31.616 43.016 31.398 43.234C31.18 43.452 31.0547 43.7543 31.0547 44.0625C31.0547 44.3707 31.1801 44.673 31.398 44.891C31.616 45.109 31.9184 45.2344 32.2266 45.2344C32.5348 45.2344 32.8371 45.109 33.055 44.891C33.273 44.673 33.3984 44.3719 33.3984 44.0625C33.3984 43.7543 33.2729 43.452 33.055 43.234Z" fill="black"/>
<path d="M27.6172 42.8906H7.5C6.85289 42.8906 6.32812 43.4153 6.32812 44.0625C6.32812 44.7097 6.85289 45.2344 7.5 45.2344H27.6172C28.2645 45.2344 28.7891 44.7097 28.7891 44.0625C28.7891 43.4153 28.2643 42.8906 27.6172 42.8906Z" fill="black"/>
<path d="M24.6094 29.7656H7.5C6.85289 29.7656 6.32812 30.2903 6.32812 30.9375C6.32812 31.5847 6.85289 32.1094 7.5 32.1094H24.6094C25.2566 32.1094 25.7812 31.5847 25.7812 30.9375C25.7812 30.2903 25.2565 29.7656 24.6094 29.7656Z" fill="black"/>
</svg>
