<svg width="64" height="64" viewBox="0 0 64 64" fill="none" xmlns="http://www.w3.org/2000/svg">
<g clip-path="url(#clip0)">
<path d="M57.2586 0H49.9795C46.4353 0 43.0322 1.3025 40.397 3.66775C40.0116 4.01362 39.9797 4.60637 40.3255 4.99162C40.6712 5.37687 41.2641 5.409 41.6493 5.06313C43.94 3.00725 46.8983 1.875 49.9793 1.875H56.7381V2.33013C56.7381 9.2095 51.1413 14.8062 44.2621 14.8062H39.535L48.1965 8.73112C48.6203 8.43388 48.723 7.84912 48.4256 7.42525C48.1283 7.00125 47.5436 6.89888 47.1197 7.19613L37.5101 13.9362C37.5766 11.9345 38.1236 9.97188 39.1022 8.23538C39.3565 7.78438 39.1968 7.2125 38.7457 6.95837C38.2947 6.704 37.7228 6.86387 37.4687 7.31488C36.2646 9.4515 35.6281 11.8846 35.6281 14.3511V15.2744C31.5 18.4357 29.0556 23.36 29.0556 28.5853V28.7267C28.6425 28.1974 28.1673 27.7125 27.6362 27.2841V26.4032C27.6362 18.7477 21.408 12.5195 13.7525 12.5195H12.3721C11.8543 12.5195 11.4346 12.9392 11.4346 13.457C11.4346 13.9747 11.8543 14.3945 12.3721 14.3945H13.7523C20.2183 14.3945 25.5072 19.5314 25.7522 25.9386L16.531 19.4709C16.107 19.1737 15.5226 19.276 15.2251 19.7C14.9278 20.1239 15.0303 20.7085 15.4542 21.0059L23.7293 26.81H19.2703C12.6487 26.81 7.26159 21.4229 7.26159 14.8013V14.3946H7.99697C8.51472 14.3946 8.93447 13.9749 8.93447 13.4571C8.93447 12.9394 8.51472 12.5196 7.99697 12.5196H6.74134C5.99434 12.5196 5.38672 13.1273 5.38672 13.8743V14.8014C5.38672 22.457 11.615 28.6851 19.2705 28.6851H26.3853C28.064 30.0018 29.0555 32.0261 29.0555 34.1725V44.0423C28.6675 43.5739 28.2248 43.1465 27.7331 42.7706V42.5071C27.7331 38.0462 24.104 34.4171 19.6431 34.4171H15.9563C15.2093 34.4171 14.6017 35.0247 14.6017 35.7718V36.0973C14.6017 40.5581 18.2308 44.1872 22.6917 44.1872H26.4971C28.1016 45.3651 29.0555 47.2435 29.0555 49.2391V55.866C27.9662 56.0068 26.9246 56.3923 26.0011 57.0016C25.7515 57.1662 25.4443 57.235 25.1366 57.1953C24.8845 57.1626 24.6271 57.1461 24.3717 57.1461C22.8191 57.1461 21.352 57.743 20.2407 58.827C19.1315 59.9089 18.4982 61.3566 18.4572 62.9036C18.4496 63.1896 18.56 63.4712 18.7598 63.6765C18.9602 63.8822 19.2397 64.0003 19.5267 64.0003H31.0602C31.578 64.0003 31.9977 63.5805 31.9977 63.0628C31.9977 62.545 31.578 62.1253 31.0602 62.1253H20.4375C20.8558 60.331 22.4498 59.0211 24.3718 59.0211C24.5472 59.0211 24.7236 59.0324 24.8962 59.0547C25.6496 59.1521 26.4088 58.9789 27.0338 58.5667C27.9122 57.9871 28.9355 57.6809 29.9931 57.6809C31.4601 57.6809 32.8311 58.2605 33.8536 59.3131C34.5467 60.0266 35.5391 60.377 36.5077 60.2508C36.6296 60.2349 36.7546 60.2267 36.8792 60.2267C38.1217 60.2267 39.174 61.013 39.5588 62.1253H35.4353C34.9176 62.1253 34.4978 62.545 34.4978 63.0628C34.4978 63.5805 34.9176 64.0003 35.4353 64.0003H40.5185C40.8072 64.0003 41.0878 63.8811 41.2885 63.6734C41.4885 63.4662 41.5975 63.1829 41.5875 62.8954C41.4982 60.3475 39.4301 58.3516 36.8792 58.3516C36.6737 58.3516 36.4671 58.365 36.2651 58.3914C35.8801 58.4415 35.4815 58.2977 35.1985 58.0065C34.0402 56.8143 32.5503 56.0721 30.9306 55.8652V39.7634C30.9306 37.8181 31.8813 35.9899 33.474 34.8727L33.667 34.7374H38.6806C44.3002 34.7374 48.8721 30.1655 48.8721 24.5459V24.0023C48.8721 23.2553 48.2645 22.6476 47.5175 22.6476H42.625C37.0053 22.6476 32.4336 27.2195 32.4336 32.8391V33.3124L32.3973 33.3377C31.8478 33.7231 31.3565 34.1731 30.9306 34.6734V28.5854C30.9306 23.8993 33.1441 19.4858 36.876 16.6814H44.2622C52.1753 16.6814 58.6132 10.2435 58.6132 2.33025V1.35475C58.6132 0.607625 58.0055 0 57.2586 0V0ZM16.4798 36.2919H19.6432C22.6833 36.2919 25.2207 38.4862 25.7547 41.3742L21.4192 38.3334C20.9953 38.0362 20.4107 38.1385 20.1133 38.5625C19.8161 38.9864 19.9186 39.571 20.3425 39.8684L23.8265 42.312H22.6917C19.3301 42.312 16.5832 39.629 16.4798 36.2919ZM42.625 24.5226H46.9972V24.5459C46.9972 29.1316 43.2665 32.8624 38.6807 32.8624H36.3403L41.562 29.2C41.9858 28.9028 42.0885 28.318 41.7911 27.8941C41.4938 27.4701 40.9091 27.3678 40.4852 27.665L34.3541 31.9653C34.7922 27.7887 38.3343 24.5226 42.625 24.5226Z" fill="black"/>
</g>
<defs>
<clipPath id="clip0">
<rect width="64" height="64" fill="white"/>
</clipPath>
</defs>
</svg>
