<svg width="20" height="20" viewBox="0 0 20 20" fill="#FFFFFF" xmlns="http://www.w3.org/2000/svg">
<g clip-path="url(#clip0)">
<path d="M14.8247 6.78112H2.98176L5.40476 4.35812C5.74585 4.01703 5.74585 3.46412 5.40476 3.12304C5.06358 2.78186 4.51077 2.78195 4.16959 3.12304L0.255813 7.037C-0.0852708 7.37809 -0.0852708 7.931 0.255813 8.27208L4.16959 12.1859C4.34018 12.3564 4.56365 12.4416 4.78713 12.4416C5.0106 12.4416 5.23408 12.3563 5.40467 12.1859C5.74575 11.8448 5.74575 11.2919 5.40467 10.9508L2.98167 8.52778H14.8246C16.7151 8.52778 18.2533 10.0659 18.2533 11.9565C18.2533 13.847 16.7151 15.3852 14.8246 15.3852H7.6204C7.13803 15.3852 6.74707 15.7761 6.74707 16.2585C6.74707 16.7408 7.13803 17.1318 7.6204 17.1318H14.8246C17.6782 17.1318 19.9999 14.8101 19.9999 11.9565C19.9999 9.10281 17.6783 6.78112 14.8247 6.78112Z" fill="#FFFFFF"/>
</g>
<defs>
<clipPath id="clip0">
<rect width="20" height="20" fill="white"/>
</clipPath>
</defs>
</svg>
