<svg width="100" height="100" viewBox="0 0 100 100" fill="none" xmlns="http://www.w3.org/2000/svg">
<g clip-path="url(#clip0)">
<path d="M63.7665 51.2987H63.5068L45.4548 49.7403C44.4158 49.6104 43.5067 49.0909 42.9873 48.0519C42.4678 47.1429 42.4678 45.974 42.9873 45.0649L67.0132 1.55844C67.6626 0.649351 68.7016 0 69.7405 0H77.5327H88.4418C89.6106 0 90.5197 0.519481 91.1691 1.55844C91.6886 2.46753 91.6886 3.63636 91.1691 4.67532L66.4938 49.6104C65.9743 50.6494 64.9353 51.2987 63.7665 51.2987Z" fill="#D32F2F"/>
<path d="M79.221 0H77.6626H69.8704C68.7015 0 67.6626 0.649351 67.1431 1.55844L42.9873 45.0649C42.4678 45.974 42.4678 47.1429 42.9873 48.052C43.5067 48.961 44.4158 49.6104 45.4548 49.7403L54.1561 50.5195L79.221 0Z" fill="#B82929"/>
<path d="M57.5323 43.6364L32.857 1.55844C32.3375 0.649351 31.2985 0 30.2596 0H11.4284C10.3895 0 9.3505 0.519481 8.83102 1.55844C8.31154 2.46753 8.31154 3.63636 8.83102 4.67532L33.6362 49.7403C34.1557 50.7792 35.1947 51.2987 36.3635 51.2987H36.883L55.4544 48.3117C56.4934 48.1818 57.4024 47.5325 57.7921 46.6234C58.0518 45.5844 58.0518 44.5455 57.5323 43.6364Z" fill="#F44336"/>
<path d="M18.5713 0H11.4284C10.3895 0 9.3505 0.519481 8.83102 1.55844C8.31154 2.46753 8.31154 3.63636 8.83102 4.67532L33.6362 49.7403C34.1557 50.7792 35.1947 51.2987 36.3635 51.2987H36.883L38.5713 51.039L42.7271 42.7273L18.5713 0Z" fill="#D43A2F"/>
<path d="M50.0001 100C33.8962 100 20.7793 86.8833 20.7793 70.7794C20.7793 54.6755 33.8962 41.5586 50.0001 41.5586C66.104 41.6885 79.2209 54.8053 79.2209 70.7794C79.2209 86.8833 66.104 100 50.0001 100Z" fill="#BBC2CC"/>
<path d="M50.0001 100C33.8962 100 20.7793 86.8833 20.7793 70.7794C20.7793 54.6755 33.8962 41.5586 50.0001 41.5586V100Z" fill="#A6A6A6"/>
<path d="M45.1952 81.8184C44.5459 81.8184 44.1562 81.6885 43.8965 81.4287C43.6368 81.169 43.5069 80.7794 43.5069 80.2599C43.5069 80.0002 43.6368 79.6106 43.7666 79.3508C43.8965 79.0911 44.1562 78.7015 44.5459 78.4417L50.2601 72.3378C51.1692 71.4287 51.8186 70.6495 52.2082 69.8703C52.5978 69.0911 52.7277 68.3119 52.7277 67.6625C52.7277 65.7144 51.5588 64.8054 49.2212 64.8054C48.5718 64.8054 47.9225 64.9352 47.2731 65.0651C46.6238 65.195 45.9744 65.5846 45.3251 65.9742C44.9355 66.2339 44.5459 66.3638 44.1562 66.2339C43.7666 66.1041 43.5069 65.8443 43.377 65.5846C43.2472 65.195 43.1173 64.8054 43.2472 64.4157C43.377 64.0261 43.5069 63.6365 44.0264 63.3768C44.8056 62.8573 45.7147 62.4677 46.7536 62.0781C47.7926 61.8183 48.8316 61.6885 49.8705 61.6885C52.0783 61.6885 53.6368 62.208 54.8056 63.117C55.9744 64.0261 56.4939 65.4547 56.4939 67.2729C56.4939 68.4417 56.2342 69.6106 55.5848 70.7794C55.0653 71.9482 54.1562 73.1171 52.8575 74.4158L48.442 79.0911H55.8446C56.8835 79.0911 57.403 79.6106 57.403 80.5197C57.403 81.5586 56.8835 82.0781 55.8446 82.0781H45.1952V81.8184Z" fill="white"/>
</g>
<defs>
<clipPath id="clip0">
<rect width="100" height="100" fill="white"/>
</clipPath>
</defs>
</svg>
