<svg width="12" height="13" viewBox="0 0 12 13" fill="none" xmlns="http://www.w3.org/2000/svg">
<path d="M8.1108 6.02786C9.00661 5.4212 9.58996 4.4394 9.58996 3.33333C9.58996 1.49533 7.9796 0 6.00021 0C4.02083 0 2.41047 1.49533 2.41047 3.33333C2.41047 4.4394 2.9938 5.4212 3.88963 6.02786C1.66276 6.81916 0.0771484 8.82403 0.0771484 11.1667C0.0771484 12.1776 0.96284 13 2.0515 13H9.94893C11.0376 13 11.9233 12.1776 11.9233 11.1667C11.9233 8.82403 10.3377 6.81916 8.1108 6.02786ZM3.48741 3.33333C3.48741 2.04674 4.61465 1.00001 6.00021 1.00001C7.38578 1.00001 8.51302 2.04674 8.51302 3.33333C8.51302 4.61993 7.38578 5.66668 6.00021 5.66668C4.61465 5.66668 3.48741 4.61993 3.48741 3.33333ZM9.94893 12H2.0515C1.55666 12 1.15408 11.6262 1.15408 11.1666C1.15408 8.68532 3.32802 6.66664 6.00024 6.66664C8.67246 6.66664 10.8464 8.6853 10.8464 11.1666C10.8464 11.6262 10.4438 12 9.94893 12Z" fill="#757575"/>
</svg>
