<svg width="64" height="64" viewBox="0 0 64 64" fill="none" xmlns="http://www.w3.org/2000/svg">
<path d="M36.5 26.25H27.5C26.8096 26.25 26.25 26.8098 26.25 27.5V36.5C26.25 37.1903 26.8096 37.75 27.5 37.75H36.5C37.1904 37.75 37.75 37.1903 37.75 36.5V27.5C37.75 26.8098 37.1904 26.25 36.5 26.25ZM35.25 35.25H28.75V28.75H35.25V35.25Z" fill="black"/>
<path d="M59.75 6.75C57.4065 6.75 55.5 8.6565 55.5 11C55.5 13.3435 57.4065 15.25 59.75 15.25C62.0935 15.25 64 13.3435 64 11C64 8.6565 62.0935 6.75 59.75 6.75ZM59.75 12.75C58.785 12.75 58 11.965 58 11C58 10.035 58.785 9.25 59.75 9.25C60.715 9.25 61.5 10.035 61.5 11C61.5 11.965 60.715 12.75 59.75 12.75Z" fill="black"/>
<path d="M53.3232 10.1123C53.0907 9.87997 52.7682 9.74609 52.4395 9.74609C52.1095 9.74609 51.787 9.87984 51.5545 10.1123C51.322 10.3448 51.1895 10.6673 51.1895 10.9961C51.1895 11.3248 51.322 11.6473 51.5545 11.8798C51.7882 12.1122 52.1095 12.2461 52.4395 12.2461C52.7682 12.2461 53.0907 12.1123 53.3232 11.8798C53.5557 11.6473 53.6895 11.3248 53.6895 10.9961C53.6895 10.6673 53.5557 10.3448 53.3232 10.1123Z" fill="black"/>
<path d="M51.9417 33.25C52.4768 34.9854 54.0953 36.25 56.0038 36.25C58.3473 36.25 60.2538 34.3435 60.2538 32C60.2538 29.6565 58.3472 27.75 56.0038 27.75C54.0952 27.75 52.4767 29.0146 51.9417 30.75H44.25V21C44.25 20.3097 43.6903 19.75 43 19.75H41V12.2463H48.0027C48.6931 12.2463 49.2527 11.6865 49.2527 10.9963C49.2527 10.306 48.6931 9.74625 48.0027 9.74625H39.75C39.0596 9.74625 38.5 10.306 38.5 10.9963V19.75H33.25V12.0584C34.9852 11.5233 36.25 9.90487 36.25 7.99625C36.25 5.65275 34.3435 3.74625 32 3.74625C29.6565 3.74625 27.75 5.65275 27.75 7.99625C27.75 9.90487 29.0147 11.5234 30.75 12.0584V19.75H21C20.3096 19.75 19.75 20.3097 19.75 21V23H12.2461V8.31325C13.9833 7.77937 15.25 6.16 15.25 4.25C15.25 1.9065 13.3435 0 11 0C8.65647 0 6.74997 1.9065 6.74997 4.25C6.74997 6.15725 8.01284 7.77475 9.74609 8.311V24.25C9.74609 24.9403 10.3057 25.5 10.9961 25.5H19.75V30.75H12.0582C11.5231 29.0146 9.90459 27.75 7.99609 27.75C5.65259 27.75 3.74609 29.6565 3.74609 32C3.74609 34.3435 5.65259 36.25 7.99609 36.25C9.90472 36.25 11.5232 34.9854 12.0582 33.25H19.75V43C19.75 43.6903 20.3096 44.25 21 44.25H23V51.7537H15.9972C15.3068 51.7537 14.7472 52.3135 14.7472 53.0037C14.7472 53.694 15.3068 54.2537 15.9972 54.2537H24.25C24.9403 54.2537 25.5 53.694 25.5 53.0037V44.25H30.75V51.9416C29.0147 52.4767 27.75 54.0951 27.75 56.0037C27.75 58.3472 29.6565 60.2537 32 60.2537C34.3435 60.2537 36.25 58.3472 36.25 56.0037C36.25 54.0951 34.9852 52.4766 33.25 51.9416V44.25H43C43.6903 44.25 44.25 43.6903 44.25 43V41H51.7538V55.6867C50.0166 56.2206 48.75 57.84 48.75 59.75C48.75 62.0935 50.6565 64 53 64C55.3435 64 57.25 62.0935 57.25 59.75C57.25 57.8428 55.9871 56.2253 54.2538 55.689V39.75C54.2538 39.0597 53.6942 38.5 53.0038 38.5H44.25V33.25H51.9417ZM56.0038 30.25C56.9688 30.25 57.7538 31.035 57.7538 32C57.7538 32.965 56.9687 33.75 56.0038 33.75C55.0388 33.75 54.2538 32.965 54.2538 32C54.2538 31.035 55.0388 30.25 56.0038 30.25ZM11 6C10.035 6 9.24997 5.215 9.24997 4.25C9.24997 3.285 10.035 2.5 11 2.5C11.965 2.5 12.75 3.285 12.75 4.25C12.75 5.215 11.965 6 11 6ZM7.99609 33.75C7.03109 33.75 6.24609 32.965 6.24609 32C6.24609 31.035 7.03109 30.25 7.99609 30.25C8.96109 30.25 9.74609 31.035 9.74609 32C9.74609 32.965 8.96109 33.75 7.99609 33.75ZM30.25 7.99625C30.25 7.03125 31.035 6.24625 32 6.24625C32.965 6.24625 33.75 7.03125 33.75 7.99625C33.75 8.96125 32.965 9.74625 32 9.74625C31.035 9.74625 30.25 8.96125 30.25 7.99625ZM33.75 56.0037C33.75 56.9688 32.965 57.7537 32 57.7537C31.035 57.7537 30.25 56.9688 30.25 56.0037C30.25 55.0387 31.035 54.2537 32 54.2537C32.965 54.2537 33.75 55.0387 33.75 56.0037ZM41.75 41.75H22.25V22.25H41.75V41.75ZM53 58C53.965 58 54.75 58.785 54.75 59.75C54.75 60.715 53.965 61.5 53 61.5C52.035 61.5 51.25 60.715 51.25 59.75C51.25 58.785 52.035 58 53 58Z" fill="black"/>
<path d="M4.25 48.75C1.9065 48.75 0 50.6565 0 53C0 55.3435 1.9065 57.25 4.25 57.25C6.5935 57.25 8.5 55.3435 8.5 53C8.5 50.6565 6.5935 48.75 4.25 48.75ZM4.25 54.75C3.285 54.75 2.5 53.965 2.5 53C2.5 52.035 3.285 51.25 4.25 51.25C5.215 51.25 6 52.035 6 53C6 53.965 5.215 54.75 4.25 54.75Z" fill="black"/>
<path d="M12.4462 52.1202C12.2138 51.8877 11.8913 51.7539 11.5625 51.7539C11.2337 51.7539 10.9113 51.8875 10.6788 52.1202C10.4463 52.3525 10.3125 52.675 10.3125 53.0039C10.3125 53.3327 10.4463 53.6552 10.6788 53.8875C10.9113 54.12 11.2337 54.2539 11.5625 54.2539C11.8913 54.2539 12.2138 54.1202 12.4462 53.8875C12.6788 53.6552 12.8125 53.3327 12.8125 53.0039C12.8125 52.675 12.6788 52.3525 12.4462 52.1202Z" fill="black"/>
</svg>
